<svg width="26" height="26" viewBox="0 0 26 26" fill="none" xmlns="http://www.w3.org/2000/svg">
<g clip-path="url(#clip0_6648_1201)">
<path d="M24.6998 8.57563H22.8581V7.11313C22.8581 6.63429 22.4703 6.24646 21.9914 6.24646H4.00811C3.52927 6.24646 3.14144 6.63429 3.14144 7.11313V8.57563H1.29977C0.820939 8.57563 0.433105 8.96346 0.433105 9.44229V10.4173C0.433105 10.8961 0.820939 11.284 1.29977 11.284H1.57061V25.2048H24.4289V11.284H24.6998C25.1786 11.284 25.5664 10.8961 25.5664 10.4173V9.44229C25.5664 8.96346 25.1786 8.57563 24.6998 8.57563Z" fill="#EDA370"/>
<path d="M5.90413 11.7173V25.2048H1.5708V11.2839H5.4708C5.71011 11.2839 5.90413 11.478 5.90413 11.7173Z" fill="#FFC89F"/>
<path d="M22.0093 7.05896H7.25827C6.7796 7.05896 6.3916 7.44696 6.3916 7.92563V8.14229C6.3916 8.3816 6.19758 8.57563 5.95827 8.57563H3.1416V7.11313C3.1416 6.63446 3.5296 6.24646 4.00827 6.24646C4.00827 6.24646 22.0298 6.24706 22.0487 6.2483C22.5636 6.28178 22.5253 7.05896 22.0093 7.05896Z" fill="#FFC89F"/>
<path d="M10.2914 18.759V25.2048H4.49561V18.759C4.49561 18.2802 4.88344 17.8923 5.36227 17.8923H9.42477C9.90361 17.8923 10.2914 18.2802 10.2914 18.759Z" fill="#585966"/>
<path d="M9.42932 18.9757H7.52894C7.05027 18.9757 6.66227 19.3637 6.66227 19.8423V25.2048H4.49561V18.759C4.49561 18.2803 4.8836 17.8923 5.36227 17.8923H9.42477C10.1789 17.8923 10.1293 18.9757 9.42932 18.9757Z" fill="#6E6F80"/>
<path d="M22.0458 17.0256V21.8464C22.0458 22.3253 21.658 22.7131 21.1792 22.7131H13.8667C13.3878 22.7131 13 22.3253 13 21.8464V17.0256C13 16.5468 13.3878 16.1589 13.8667 16.1589H21.1792C21.658 16.1589 22.0458 16.5468 22.0458 17.0256Z" fill="#CBE3FA"/>
<path d="M21.1837 17.2423H16.575C16.0963 17.2423 15.7083 17.6303 15.7083 18.1089V22.2256C15.7083 22.4949 15.4901 22.7131 15.2208 22.7131H13.8667C13.388 22.7131 13 22.3251 13 21.8464V17.0256C13 16.5469 13.388 16.1589 13.8667 16.1589H21.1792C21.9333 16.1589 21.8837 17.2423 21.1837 17.2423Z" fill="#EEF7FF"/>
<path d="M25.5664 9.44223V10.4172C25.5664 10.8961 25.1786 11.2839 24.6998 11.2839H1.29977C0.820939 11.2839 0.433105 10.8961 0.433105 10.4172V9.44223C0.433105 8.96339 0.820939 8.57556 1.29977 8.57556H24.6998C25.1786 8.57556 25.5664 8.96339 25.5664 9.44223Z" fill="#CBE3FA"/>
<path d="M24.7043 9.65889H3.46644C2.98777 9.65889 2.59977 10.0469 2.59977 10.5256V10.8506C2.59977 11.0899 2.40575 11.2839 2.16644 11.2839H1.29977C0.821101 11.2839 0.433105 10.8959 0.433105 10.4172V9.44223C0.433105 8.96356 0.821101 8.57556 1.29977 8.57556H24.6998C25.4539 8.57556 25.4043 9.65889 24.7043 9.65889Z" fill="#EEF7FF"/>
<path d="M17.4766 2.66824C17.5773 2.30478 17.4376 1.91803 17.124 1.70949L16.552 1.32761C16.3212 1.17378 16.0292 1.13532 15.7709 1.23553C15.0022 1.53507 14.1637 1.46411 13.5327 0.976611C13.218 0.733402 12.7814 0.734486 12.4667 0.977152C11.8373 1.46194 11.0004 1.53561 10.2302 1.23607C9.97124 1.13532 9.67874 1.17432 9.44745 1.32869L8.87653 1.70949C8.56291 1.91803 8.42316 2.30478 8.52391 2.66824C9.32828 5.57644 7.4942 6.84557 7.69462 8.80911C7.89612 10.7867 9.40412 12.9919 13.0002 13.3857C16.5964 12.9919 18.1044 10.7867 18.3059 8.80911C18.5063 6.84557 16.6722 5.57644 17.4766 2.66824Z" fill="#FFE773"/>
<path d="M16.1479 2.32227C14.1626 2.1231 10.6361 1.47283 11.2322 3.75157C11.9959 6.67072 10.2025 7.9289 10.403 9.89244C10.4697 10.5471 10.6796 11.2267 11.0608 11.8572C11.3468 12.3301 10.8297 12.8739 10.3411 12.6156C8.62758 11.7098 7.83675 10.2029 7.69462 8.80911C7.4942 6.84557 9.32828 5.57644 8.52391 2.66824C8.42316 2.30478 8.56291 1.91803 8.87653 1.70949L9.44745 1.32869C9.67874 1.17432 9.97124 1.13532 10.2302 1.23607C11.0004 1.53561 11.8373 1.46194 12.4667 0.977152C12.7814 0.734486 13.218 0.733402 13.5327 0.976611C14.1637 1.46411 15.0022 1.53507 15.7709 1.23553C16.0292 1.13532 16.3212 1.17378 16.552 1.32761C16.9974 1.71994 16.6773 2.37536 16.1479 2.32227Z" fill="#FFF0A6"/>
<path d="M14.7724 6.27563C15.3942 6.36609 15.6429 7.13038 15.1927 7.56913L14.6332 8.11459L14.7654 8.88484C14.8715 9.50451 14.221 9.97684 13.6647 9.68434L12.973 9.32034L12.2813 9.68434C11.725 9.97684 11.0744 9.50451 11.1806 8.88484L11.3128 8.11459L10.7532 7.56913C10.3031 7.13038 10.5517 6.36609 11.1736 6.27563L11.9471 6.16297L12.2932 5.46205C12.5711 4.89872 13.3749 4.89872 13.6528 5.46205L13.9989 6.16297L14.7724 6.27563Z" fill="#FFF8D6"/>
<path d="M14.3304 7.80428C14.159 7.97133 14.1555 8.24568 14.3226 8.41706C14.4895 8.58845 14.764 8.59197 14.9354 8.42492L15.4951 7.87935C16.2022 7.19013 15.8114 5.98866 14.8347 5.84675L14.2866 5.76712L14.0415 5.27052C13.6045 4.38506 12.3411 4.38544 11.9043 5.27052L11.6592 5.76712L11.1112 5.84675C10.134 5.98872 9.74391 7.19041 10.4508 7.87935L10.8473 8.26594L10.7537 8.81178C10.5867 9.78499 11.6091 10.5273 12.4827 10.068L12.9729 9.81029L13.4632 10.068C13.8246 10.2581 14.2579 10.2553 14.622 10.0404C14.8281 9.91873 14.8965 9.65304 14.7748 9.44693C14.6532 9.24088 14.3875 9.17236 14.1814 9.29408C14.1238 9.32815 14.0062 9.37424 13.8665 9.30085L13.1747 8.93712C13.0485 8.87071 12.8976 8.87071 12.7714 8.93712L12.0796 9.30085C11.8412 9.42619 11.5623 9.22474 11.608 8.95824L11.7401 8.18783C11.7642 8.04727 11.7176 7.90383 11.6155 7.80428L11.0558 7.25866C10.8625 7.07026 10.9688 6.7431 11.2359 6.70431L12.0094 6.59192C12.1505 6.57139 12.2725 6.48272 12.3356 6.35488L12.6815 5.65402C12.801 5.41195 13.145 5.41201 13.2645 5.65402L13.6104 6.35494C13.6735 6.48283 13.7955 6.5715 13.9366 6.59197L14.7101 6.70437C14.9773 6.74315 15.0835 7.07037 14.8902 7.25871L14.3304 7.80428Z" fill="black"/>
<path d="M26 10.4172V9.44224C26 8.72539 25.4168 8.14224 24.7 8.14224H23.2917V7.11307C23.2917 6.39623 22.7085 5.81307 21.9917 5.81307H19.7988C19.5595 5.81307 19.3654 6.00709 19.3654 6.2464C19.3654 6.48571 19.5595 6.67974 19.7988 6.67974H21.9917C22.2306 6.67974 22.425 6.87414 22.425 7.11307V8.14224H18.3202C18.1771 8.14224 18.0344 8.21536 17.9526 8.34709C17.8708 8.47829 17.8949 8.56495 17.8746 8.76494C17.6935 10.5414 16.3173 12.5687 13 12.9495C9.68267 12.5687 8.30646 10.5414 8.12543 8.76494C7.94305 6.97559 9.78483 5.60339 8.94118 2.55251C8.8901 2.36774 8.96052 2.17372 9.11647 2.06977L9.68776 1.68893C9.8059 1.61022 9.94971 1.59181 10.0726 1.63964C11.0058 2.00282 11.9997 1.88344 12.731 1.32016C12.8893 1.19812 13.1099 1.19785 13.2674 1.31946C13.9982 1.8842 14.9931 2.00369 15.9281 1.63936C16.0506 1.59164 16.1937 1.60995 16.311 1.68817L16.8835 2.06972C17.0394 2.17366 17.1099 2.36769 17.0588 2.55245C16.5489 4.39612 17.0206 5.63096 17.4367 6.72047C17.466 6.79728 17.4952 6.87365 17.5237 6.94965C17.608 7.17368 17.8579 7.28694 18.0819 7.20277C18.3059 7.11854 18.4192 6.86867 18.335 6.64464C17.8974 5.48021 17.4356 4.44146 17.8941 2.78347C18.0451 2.23726 17.8322 1.66065 17.3642 1.3486L16.7918 0.967048C16.4395 0.732181 15.9989 0.681589 15.6135 0.831794C14.9642 1.08475 14.2853 1.01065 13.7972 0.633598C13.3281 0.271223 12.6721 0.271223 12.202 0.633598C11.7134 1.01 11.0348 1.0841 10.3868 0.83201C10.001 0.681752 9.55982 0.73256 9.20698 0.967806L8.63568 1.34865C8.16768 1.66065 7.95475 2.23726 8.10577 2.78347C8.86952 5.54511 7.04578 6.71917 7.26315 8.85279C7.33043 9.51303 7.53258 10.202 7.89544 10.8506H1.3C1.06107 10.8506 0.866667 10.6562 0.866667 10.4172V9.44224C0.866667 9.20331 1.06107 9.0089 1.3 9.0089H5.41667C5.65597 9.0089 5.85 8.81488 5.85 8.57557C5.85 8.33626 5.65597 8.14224 5.41667 8.14224H3.575V7.11307C3.575 6.87414 3.7694 6.67974 4.00833 6.67974H6.10686C6.34617 6.67974 6.54019 6.48571 6.54019 6.2464C6.54019 6.00709 6.34617 5.81307 6.10686 5.81307H4.00833C3.29155 5.81307 2.70833 6.39623 2.70833 7.11307V8.14224H1.3C0.583212 8.14224 0 8.72539 0 9.44224V10.4172C0 11.079 0.497142 11.6265 1.1375 11.7067V24.7714H0.433333C0.194025 24.7714 0 24.9654 0 25.2047C0 25.444 0.194025 25.6381 0.433333 25.6381H25.5667C25.806 25.6381 26 25.444 26 25.2047C26 24.9654 25.806 24.7714 25.5667 24.7714H24.8625V13.5083C24.8625 13.2689 24.6685 13.0749 24.4292 13.0749C24.1899 13.0749 23.9958 13.2689 23.9958 13.5083V24.7715H10.725V18.759C10.725 18.0421 10.1418 17.459 9.425 17.459H5.3625C4.64571 17.459 4.0625 18.0421 4.0625 18.759V23.0695C4.0625 23.3088 4.25653 23.5029 4.49583 23.5029C4.73514 23.5029 4.92917 23.3088 4.92917 23.0695V18.7589C4.92917 18.52 5.12357 18.3256 5.3625 18.3256H9.425C9.66393 18.3256 9.85833 18.52 9.85833 18.7589V24.7714H2.00417V11.7172H8.50428C9.41005 12.7623 10.8461 13.5857 12.9528 13.8164C12.9841 13.8198 13.0159 13.8198 13.0472 13.8164C16.8179 13.4035 18.4403 11.0919 18.7182 9.0089H24.7C24.9389 9.0089 25.1333 9.20331 25.1333 9.44224V10.4172C25.1333 10.6562 24.9389 10.8506 24.7 10.8506H19.7988C19.5595 10.8506 19.3654 11.0446 19.3654 11.2839C19.3654 11.5232 19.5595 11.7172 19.7988 11.7172H24.7C25.4168 11.7172 26 11.1341 26 10.4172Z" fill="black"/>
<path d="M17.5502 15.7256H13.8669C13.1501 15.7256 12.5669 16.3088 12.5669 17.0256V21.8464C12.5669 22.5632 13.1501 23.1464 13.8669 23.1464H21.1794C21.8962 23.1464 22.4794 22.5632 22.4794 21.8464V17.0256C22.4794 16.3088 21.8962 15.7256 21.1794 15.7256H19.6383C19.399 15.7256 19.205 15.9196 19.205 16.1589C19.205 16.3982 19.399 16.5923 19.6383 16.5923H21.1794C21.4183 16.5923 21.6127 16.7867 21.6127 17.0256V18.9756H17.9836V16.1589C17.9836 15.9196 17.7895 15.7256 17.5502 15.7256ZM21.6127 19.8423V21.8464C21.6127 22.0853 21.4183 22.2798 21.1794 22.2798H17.9836V19.8423H21.6127ZM15.3189 19.8423H17.1169V22.2798H13.8669C13.628 22.2798 13.4336 22.0853 13.4336 21.8464V17.0256C13.4336 16.7867 13.628 16.5923 13.8669 16.5923H17.1169V18.9756H15.3189C15.0796 18.9756 14.8856 19.1696 14.8856 19.4089C14.8856 19.6482 15.0796 19.8423 15.3189 19.8423Z" fill="black"/>
<path d="M5.41673 14.9131C5.17742 14.9131 4.9834 15.1071 4.9834 15.3464C4.9834 15.5857 5.17742 15.7798 5.41673 15.7798H9.31673C9.55604 15.7798 9.75007 15.5857 9.75007 15.3464C9.75007 15.1071 9.55604 14.9131 9.31673 14.9131H5.41673Z" fill="black"/>
</g>
<defs>
<clipPath id="clip0_6648_1201">
<rect width="26" height="26" fill="white"/>
</clipPath>
</defs>
</svg>
