<svg width="40" height="40" viewBox="0 0 40 40" fill="none" xmlns="http://www.w3.org/2000/svg">
<path d="M19.75 16.6562C19.8125 16.5938 19.9062 16.5625 20 16.5625C20.0625 16.5625 20.1562 16.5938 20.2188 16.6562L26 21.375V26.5C26 26.7812 25.75 27 25.5 27H21.9688C21.7188 27 21.4688 26.7812 21.4688 26.5V23.5C21.4688 23.25 21.25 23 20.9688 23H18.9688C18.7188 23 18.4688 23.25 18.4688 23.5V26.5C18.4688 26.7812 18.25 27 18 27H14.5C14.2188 27 14 26.7812 14 26.5V21.4062L19.75 16.6562ZM28.8438 19.875C28.9375 19.9375 29 20.0625 29 20.1562C29 20.25 28.9688 20.3438 28.9062 20.4062L28.0938 21.375C28.0312 21.4688 27.9375 21.5 27.8125 21.5C27.7188 21.5 27.625 21.4688 27.5625 21.4062L20.2188 15.375C20.1562 15.3125 20.0625 15.2812 20 15.2812C19.9062 15.2812 19.8125 15.3125 19.75 15.375L12.4062 21.4062C12.3438 21.4688 12.25 21.5 12.1562 21.5C12.0312 21.5 11.9375 21.4688 11.875 21.375L11.0625 20.4062C11.0312 20.3438 10.9688 20.25 10.9688 20.1562C10.9688 20.0625 11.0312 19.9375 11.125 19.875L19.0312 13.3438C19.2812 13.1562 19.625 13.0312 20 13.0312C20.3438 13.0312 20.6875 13.1562 20.9375 13.3438L23.75 15.6562V13.4062C23.75 13.1875 23.9062 13.0312 24.125 13.0312H25.875C26.0625 13.0312 26.25 13.1875 26.25 13.4062V17.7188L28.8438 19.875Z" fill="#1351B4"/>
</svg>
