<svg width="37" height="44" viewBox="0 0 37 44" fill="none" xmlns="http://www.w3.org/2000/svg">
<path d="M28 21.4841H9V42.9683H28V21.4841Z" fill="#9BE69D"/>
<path d="M18 31.2497C16.8954 31.2497 16 30.4028 16 29.358V27.1353V24.4138H20V27.1662V29.358C20 30.4028 19.1046 31.2497 18 31.2497Z" fill="#FFCEBF"/>
<path d="M15 29.5052V24.0842C15 23.7269 15.3193 23.4373 15.7133 23.4373H20.2867C20.6807 23.4373 21 23.7269 21 24.0842V29.5052C21 31.008 19.6569 32.2262 18 32.2262C16.3431 32.2262 15 31.008 15 29.5052ZM16.4265 29.5052C16.4265 30.2934 17.131 30.9323 18 30.9323C18.869 30.9323 19.5735 30.2934 19.5735 29.5052V24.7311H16.4265V29.5052Z" fill="black"/>
<path d="M27.423 17.5779H9.57711C8.15385 17.5779 7 16.537 7 15.2529V12.5474V8.71292C7 4.44022 10.8392 0.976562 15.5751 0.976562H21.4249C26.1608 0.976562 30 4.44022 30 8.71292V12.5736V15.2529C30.0001 16.537 28.8462 17.5779 27.423 17.5779Z" fill="#685E68"/>
<path d="M7 15.5V8.68954C7.00002 3.89042 10.9117 2.08928e-05 15.737 0H16.9478C17.2995 1.53212e-05 17.5847 0.283587 17.5847 0.633388C17.5847 0.98319 17.2995 1.26676 16.9478 1.26678H15.737C11.6151 1.2668 8.27372 4.59004 8.2737 8.68954V15.5C8.27371 16.4873 9.07845 17.2877 10.0712 17.2877H26.9289C27.9215 17.2877 28.7263 16.4874 28.7263 15.5V8.68954C28.7263 4.59003 25.3848 1.26678 21.2629 1.26678H19.4103C19.0586 1.26678 18.7734 0.983199 18.7734 0.633388C18.7734 0.283578 19.0586 0 19.4103 0H21.2629C26.0882 0 30 3.89041 30 8.68954V15.5C30 17.1869 28.625 18.5545 26.9289 18.5545H10.0712C8.37498 18.5545 7.00001 17.1869 7 15.5Z" fill="black"/>
<path d="M18.5 27.3433C15.9178 27.3433 13.6045 26.1796 12.0456 24.3428C10.7704 22.8403 10 20.8875 10 18.7527V13.8834V10.9521C10 10.5617 10.3596 10.2737 10.7361 10.3614C13.6261 11.0342 16.2658 10.3536 18.7576 8.87304C18.9905 8.73464 19.2848 8.76941 19.4802 8.95823C21.2063 10.627 23.537 10.9414 26.2765 10.3395C26.6489 10.2576 27 10.5483 27 10.9335V13.8343V18.7526C27 20.8283 26.2715 22.7321 25.059 24.2169C23.5 26.1264 21.1406 27.3433 18.5 27.3433Z" fill="#FFDFCF"/>
<path d="M26.647 18.7071V11.466C23.7248 12.031 21.0753 11.7489 19.0775 10.03C16.4097 11.4488 13.5244 12.1314 10.353 11.4845V18.7072C10.353 20.5481 11.091 22.2307 12.3135 23.5262C13.8087 25.1109 16.0253 26.1133 18.5 26.1133C21.0307 26.1133 23.2915 25.065 24.7869 23.4177L24.841 23.3574C25.9709 22.0861 26.647 20.4691 26.647 18.7071ZM28 18.7071C28 20.7932 27.1855 22.708 25.8305 24.2006C24.0891 26.1189 21.4515 27.3433 18.5 27.3433C15.6139 27.3433 13.0278 26.1725 11.2865 24.3271C9.86157 22.817 9 20.8528 9 18.7072V11.4237C9.00001 10.6738 9.7556 10.1202 10.5544 10.2654L10.5925 10.2728L10.7231 10.2993C13.4629 10.8388 15.985 10.2562 18.4245 8.95236C18.9117 8.69198 19.5243 8.74749 19.945 9.08409L19.9851 9.11756C21.552 10.4801 23.7042 10.7892 26.4288 10.2507L26.4669 10.2437C27.2678 10.1074 28 10.6729 28 11.4063V18.7071Z" fill="black"/>
<path d="M11.7524 25.4209C10.7544 22.0992 10.0309 18.7185 9.95613 15.1987C9.94708 14.7717 9.66407 14.3971 9.24878 14.2699L7.44362 13.7171C6.88504 13.546 6.29612 13.8765 6.16256 14.4358L5.32773 17.9339C4.72444 20.4619 4.95817 23.1129 5.99493 25.5015C6.65148 27.014 6.98986 28.6412 6.98986 30.2852V42.9684H10.9363L11.986 27.5272C12.0343 26.8171 11.9576 26.1035 11.7524 25.4209Z" fill="#FFCEBF"/>
<path d="M7.78613 25.5015C6.52121 23.1129 6.23605 20.4619 6.97211 17.9339L7.99064 14.4358C8.06387 14.1844 8.24981 13.9799 8.49383 13.8457L7.98136 13.7171C7.29986 13.546 6.58134 13.8765 6.41839 14.4358L5.39985 17.9339C4.6638 20.4619 4.94896 23.1129 6.21388 25.5015C7.01491 27.014 7.42775 28.6412 7.42775 30.2852V42.9684H9V30.2853C9 28.6412 8.58706 27.0141 7.78613 25.5015Z" fill="#FFB09E"/>
<path d="M25.2122 25.4209C26.0677 22.0992 26.6878 18.7185 26.7519 15.1987C26.7596 14.7717 27.0022 14.3971 27.3582 14.2699L28.9055 13.7171C29.3842 13.546 29.889 13.8765 30.0035 14.4358L30.7191 17.9339C31.2362 20.4619 31.0359 23.1129 30.1472 25.5015C29.5844 27.014 29.2944 28.6412 29.2944 30.2852V42.9684H25.9118L25.012 27.5272C24.9706 26.8171 25.0364 26.1035 25.2122 25.4209Z" fill="#FFCEBF"/>
<path d="M28.9104 25.5015C29.8591 23.1129 30.073 20.4619 29.5209 17.9339L28.757 14.4358C28.7021 14.1844 28.5626 13.9799 28.3796 13.8457L28.764 13.7171C29.2751 13.546 29.814 13.8765 29.9362 14.4358L30.7001 17.9339C31.2522 20.4619 31.0383 23.1129 30.0896 25.5015C29.4888 27.014 29.1792 28.6412 29.1792 30.2852V42.9684H28V30.2853C28 28.6412 28.3097 27.0141 28.9104 25.5015Z" fill="#FFB09E"/>
<path d="M28.8478 30.9894V30.3307C28.8478 28.5626 29.1919 26.8129 29.8596 25.1864C30.8116 22.8671 31.0262 20.293 30.4722 17.8383L29.6644 14.2591C29.6165 14.047 29.4052 13.9215 29.2048 13.9864L27.4581 14.552H27.458C27.3207 14.5965 27.2208 14.7233 27.2061 14.8766L27.2044 14.9076C27.1304 18.5857 26.4158 22.1042 25.4414 25.5337L25.4413 25.5338C25.2639 26.1579 25.197 26.8126 25.239 27.4663L26.2546 43.2654C26.2772 43.6163 26.0215 43.9198 25.6835 43.9433C25.3454 43.9667 25.053 43.7012 25.0305 43.3502L24.0149 27.5511C23.9635 26.7517 24.0449 25.946 24.2646 25.1733L24.3535 24.8575C25.2638 21.5928 25.9091 18.2957 25.9777 14.8811C25.9919 14.1743 26.4356 13.5489 27.0928 13.3361L28.8395 12.7704L28.8808 12.7577C29.7488 12.5026 30.6518 13.0508 30.8589 13.9686L31.6667 17.5477C32.2802 20.2663 32.0425 23.1171 30.9882 25.6857V25.6858C30.3853 27.1543 30.0747 28.7342 30.0747 30.3307V30.9894C30.0747 31.3411 29.8 31.6262 29.4612 31.6263C29.1224 31.6263 28.8478 31.3411 28.8478 30.9894Z" fill="black"/>
<path d="M29 43.2744V32.8969C29 32.5265 29.2239 32.2263 29.5 32.2263C29.7761 32.2263 30 32.5265 30 32.8969V43.2744C30 43.6447 29.7761 43.9449 29.5 43.9449C29.2239 43.9449 29 43.6447 29 43.2744Z" fill="black"/>
<path d="M6.16604 35.2571V30.3306C6.16604 28.7342 5.81645 27.1543 5.13823 25.6857C3.95209 23.1171 3.68476 20.2662 4.37497 17.5477L5.28372 13.9685V13.9685C5.52054 13.0363 6.56493 12.4853 7.55562 12.7704L9.52057 13.3361H9.52066C10.2598 13.5489 10.7591 14.1742 10.7751 14.8811L10.7793 15.0462C10.8789 18.512 11.6425 21.858 12.7023 25.1733V25.1734C12.9492 25.946 13.0411 26.7516 12.9833 27.5511H12.9832L11.8405 43.3502C11.8151 43.7012 11.4862 43.9667 11.106 43.9433C10.7257 43.9199 10.438 43.6163 10.4634 43.2654L11.6061 27.4663L11.6102 27.405C11.6473 26.7921 11.5766 26.1793 11.3968 25.5923L11.3785 25.5337C10.2994 22.1578 9.50338 18.6956 9.39953 15.0799L9.39513 14.9076C9.39137 14.7407 9.27454 14.5995 9.10956 14.552V14.5519L7.14461 13.9864C6.91927 13.9215 6.68148 14.0468 6.62747 14.259L5.71881 17.8383C5.0956 20.2929 5.33703 22.8671 6.40803 25.1863C7.15917 26.8128 7.54628 28.5626 7.54628 30.3306V35.2571C7.54628 35.6088 7.2373 35.894 6.85616 35.894C6.47502 35.894 6.16604 35.6088 6.16604 35.2571Z" fill="black"/>
<path d="M7 43.3103V37.7434C7 37.3929 7.22386 37.1089 7.5 37.1089C7.77614 37.1089 8 37.3929 8 37.7434V43.3103C8 43.6607 7.77614 43.9447 7.5 43.9447C7.22386 43.9447 7 43.6607 7 43.3103Z" fill="black"/>
<path d="M36.0479 16.6719C36.3688 16.5105 36.7627 16.6343 36.9276 16.9483C37.0926 17.2624 36.9661 17.6479 36.6452 17.8093L33.62 19.3311C33.0909 19.5973 32.4631 19.5972 31.934 19.3311H31.9339L29.453 18.0832V18.0831C29.3084 18.0104 29.1386 18.0058 28.9908 18.0695L28.9616 18.0831L26.4812 19.331C25.952 19.5972 25.324 19.5973 24.7948 19.331L22.3144 18.0832V18.0831C22.1698 18.0104 21.9999 18.0058 21.8522 18.0695L21.8229 18.0831L19.3426 19.331C18.8134 19.5972 18.1855 19.5973 17.6563 19.331L15.1762 18.0831C15.0219 18.0055 14.8389 18.0055 14.6846 18.0831V18.0832L12.2042 19.331C11.675 19.5972 11.0471 19.5973 10.5179 19.331L8.0377 18.0831H8.03761C7.88339 18.0055 7.70041 18.0055 7.54619 18.0831H7.54611L5.06579 19.331C4.55313 19.589 3.94777 19.597 3.42932 19.3552L3.37947 19.331L0.354742 17.8092C0.0338557 17.6478 -0.0925413 17.2624 0.0724129 16.9483C0.23737 16.6343 0.631179 16.5106 0.952067 16.672L3.97688 18.1937L4.00614 18.2074C4.1539 18.2711 4.32379 18.2665 4.46838 18.1937L6.9487 16.946V16.9459C7.4779 16.6796 8.10591 16.6796 8.63511 16.9459L8.63502 16.946L11.1153 18.1937C11.2696 18.2714 11.4526 18.2714 11.6068 18.1937L14.0872 16.946V16.9459C14.6164 16.6796 15.2444 16.6796 15.7736 16.9459L18.2537 18.1937H18.2538C18.408 18.2714 18.591 18.2713 18.7452 18.1937H18.7453L21.2255 16.9459L21.2754 16.9217C21.7938 16.6798 22.3992 16.6879 22.9118 16.9459L25.3922 18.1937H25.3923C25.5466 18.2713 25.7295 18.2714 25.8838 18.1937H25.8838L28.3642 16.9459L28.414 16.9217C28.9324 16.6798 29.5377 16.6879 30.0504 16.9459L30.0503 16.946L32.5312 18.1938H32.5311C32.6855 18.2714 32.8685 18.2714 33.0226 18.1938L36.0479 16.6719Z" fill="black"/>
<path d="M36.0479 19.6019C36.3688 19.4404 36.7627 19.5642 36.9276 19.8782C37.0926 20.1923 36.9661 20.5778 36.6452 20.7392L33.62 22.2611C33.0909 22.5272 32.4631 22.5272 31.934 22.2611H31.9339L29.453 21.0131V21.013C29.3084 20.9403 29.1386 20.9357 28.9908 20.9994L28.9616 21.013L26.4812 22.2609C25.952 22.5272 25.324 22.5273 24.7948 22.261L22.3144 21.0131V21.013C22.1698 20.9403 21.9999 20.9357 21.8522 20.9994L21.8229 21.013L19.3426 22.2609C18.8134 22.5272 18.1855 22.5272 17.6563 22.261L15.1762 21.013C15.0219 20.9354 14.8389 20.9354 14.6846 21.013V21.0131L12.2042 22.2609C11.675 22.5271 11.0471 22.5272 10.5179 22.261L8.0377 21.013H8.03761C7.88339 20.9354 7.70041 20.9355 7.54619 21.013H7.54611L5.06579 22.261C4.55313 22.5189 3.94777 22.527 3.42932 22.2851L3.37947 22.261L0.354742 20.7391C0.0338558 20.5777 -0.0925413 20.1923 0.0724129 19.8782C0.23737 19.5642 0.631179 19.4405 0.952066 19.6019L3.97688 21.1237L4.00614 21.1373C4.1539 21.201 4.32379 21.1964 4.46838 21.1237L6.9487 19.8759V19.8758C7.4779 19.6095 8.10591 19.6095 8.63511 19.8758L8.63502 19.8759L11.1153 21.1237C11.2696 21.2013 11.4526 21.2013 11.6068 21.1237L14.0872 19.8759V19.8758C14.6164 19.6096 15.2444 19.6096 15.7736 19.8758L18.2537 21.1237H18.2538C18.408 21.2013 18.591 21.2013 18.7452 21.1237H18.7453L21.2255 19.8758L21.2754 19.8516C21.7938 19.6098 22.3992 19.6179 22.9118 19.8758L25.3922 21.1237H25.3923C25.5466 21.2013 25.7295 21.2013 25.8838 21.1237H25.8838L28.3642 19.8758L28.414 19.8516C28.9324 19.6098 29.5377 19.6179 30.0504 19.8758L30.0503 19.8759L32.5312 21.1238H32.5311C32.6855 21.2014 32.8685 21.2013 33.0226 21.1238L36.0479 19.6019Z" fill="black"/>
<path d="M3.38667 9.14439C3.38667 9.05052 3.3414 8.92904 3.21874 8.62961C3.12733 8.40649 2.95132 7.9961 3.01272 7.55921H3.01264C3.07466 7.11771 3.3547 6.77443 3.50746 6.58279C3.71143 6.32689 3.78499 6.2295 3.80904 6.14637C3.83455 6.05818 3.82476 5.9303 3.79043 5.60555C3.7648 5.36312 3.71127 4.91839 3.89277 4.51655C4.07502 4.11297 4.43971 3.86668 4.63839 3.72873C4.90412 3.54422 5.00308 3.4713 5.05019 3.39729V3.39721C5.09824 3.32176 5.12408 3.19793 5.18162 2.87564C5.22461 2.63487 5.29723 2.19323 5.58302 1.86047C5.86903 1.52746 6.28693 1.39788 6.51471 1.3237C6.81953 1.22442 6.93556 1.18269 7.00204 1.12466C7.25672 0.902338 7.63887 0.933931 7.8556 1.19518C8.07233 1.45643 8.0416 1.84843 7.78693 2.07075C7.49043 2.32958 7.08539 2.44114 6.88117 2.50765C6.59996 2.59923 6.52079 2.64791 6.49177 2.6817C6.4631 2.71508 6.42609 2.80135 6.37287 3.09942C6.33421 3.31595 6.27712 3.74185 6.06412 4.07642C5.85175 4.41003 5.49383 4.63486 5.31723 4.75748C5.07366 4.9266 5.01058 4.99689 4.99169 5.03869L4.99161 5.03877C4.97411 5.0775 4.96251 5.16951 4.99445 5.47162C5.01696 5.68455 5.07714 6.08963 4.97994 6.46365L4.97009 6.49973C4.85994 6.88054 4.57907 7.20095 4.44499 7.36915C4.25969 7.60161 4.21799 7.68878 4.2113 7.73641V7.73649C4.20566 7.77669 4.21973 7.86654 4.33516 8.14832C4.41935 8.35384 4.59771 8.74211 4.59771 9.14439C4.59771 9.48744 4.32661 9.76553 3.99219 9.76553C3.65777 9.76553 3.38667 9.48744 3.38667 9.14439Z" fill="black"/>
<path d="M32.0827 9.14439C32.0827 8.74212 32.2967 8.35386 32.3978 8.14831C32.5362 7.8666 32.5532 7.77668 32.5464 7.7364L32.5443 7.72694C32.5314 7.67727 32.4744 7.58706 32.266 7.36914C32.1051 7.20093 31.768 6.88052 31.6359 6.49971C31.5027 6.11593 31.5787 5.69142 31.6066 5.4716C31.6426 5.18835 31.6326 5.08979 31.6139 5.04667L31.61 5.03875C31.5873 4.99687 31.5116 4.92659 31.2193 4.75746C31.0074 4.63485 30.5779 4.41009 30.323 4.07647C30.0675 3.74192 29.999 3.31591 29.9526 3.09939C29.8888 2.80132 29.8444 2.71505 29.8101 2.68174H29.81C29.7751 2.64796 29.6801 2.5993 29.3426 2.5077C29.0975 2.44119 28.6116 2.32961 28.2558 2.07088C27.9501 1.84859 27.9132 1.4565 28.1732 1.19522C28.4332 0.933946 28.8919 0.902332 29.1976 1.12462C29.2774 1.18266 29.4166 1.22439 29.7823 1.32366C30.0556 1.39783 30.557 1.52749 30.9002 1.86036H30.9003C31.2433 2.19309 31.3305 2.63472 31.3821 2.87553C31.4512 3.19789 31.4822 3.32179 31.5398 3.39726C31.5964 3.47126 31.7151 3.54421 32.0339 3.7287C32.2723 3.86667 32.7099 4.11293 32.9286 4.51652L32.9482 4.55429C33.1424 4.94593 33.0812 5.37059 33.0514 5.60545C33.0102 5.93017 32.9985 6.0581 33.0291 6.14636L33.0353 6.16213C33.0696 6.24226 33.1615 6.34287 33.391 6.58277C33.5686 6.76843 33.8895 7.0964 33.977 7.51811L33.9848 7.5592L33.9908 7.60004C34.0453 8.0215 33.8437 8.41335 33.7375 8.62953C33.5903 8.92896 33.5359 9.0505 33.5359 9.14439C33.5359 9.48743 33.2106 9.76553 32.8093 9.76553C32.4081 9.76551 32.0827 9.48742 32.0827 9.14439Z" fill="black"/>
</svg>
