<svg width="47" height="47" viewBox="0 0 47 47" fill="none" xmlns="http://www.w3.org/2000/svg">
<path d="M27.8759 25.8867C27.8759 25.8867 36.7279 28.5158 38.5244 30.8704C39.7416 32.4649 42.1458 38.6961 42.1458 46.2675H4.85327C4.85327 38.6961 7.25743 32.4649 8.47466 30.8704C10.272 28.5158 19.1231 25.8867 19.1231 25.8867H27.8759Z" fill="#348FD9"/>
<path d="M4.85327 46.2656L14.4736 36.6811C15.5517 35.6027 16.2863 34.2292 16.5849 32.7339C16.8429 31.4487 17.2486 30.0341 17.8095 29.7532C18.6118 29.353 19.7372 29.9304 19.3801 32.3235C19.3801 32.3235 23.6524 29.5843 25.5085 30.2636C27.3646 30.9429 27.483 35.6319 25.2331 36.8225C22.3479 38.3463 20.8865 37.9617 19.8235 39.0256C18.7605 40.0896 14.0917 46.2656 14.0917 46.2656H4.85327Z" fill="#FFC89F"/>
<path d="M5.16813 41.4656C4.95994 43.0571 4.85477 44.6605 4.85327 46.2656L9.67077 41.4656H5.16813Z" fill="#F4B184"/>
<path d="M19.124 22.7327V25.8868C19.1245 27.0471 19.5858 28.1596 20.4064 28.9799C21.227 29.8001 22.3397 30.2609 23.5 30.2609C24.6602 30.2609 25.773 29.8001 26.5936 28.9799C27.4142 28.1596 27.8755 27.0471 27.8759 25.8868V22.7327H19.124Z" fill="#F4B184"/>
<path d="M19.124 24.3821C20.6029 25.4065 22.3663 25.9426 23.5 25.9426C24.6337 25.9426 26.3971 25.4084 27.8759 24.3821V22.7297H19.124V24.3821Z" fill="#EDA370"/>
<path d="M15.1933 10.9871C14.7728 10.9874 14.3572 11.0773 13.9742 11.2508C13.5912 11.4244 13.2496 11.6775 12.9722 11.9935C12.6947 12.3095 12.4878 12.6809 12.3652 13.0831C12.2426 13.4854 12.2072 13.9091 12.2613 14.3261C12.3153 14.7431 12.4576 15.1438 12.6787 15.5014C12.8998 15.8591 13.1947 16.1655 13.5435 16.4002C13.8923 16.635 14.2872 16.7927 14.7018 16.8628C15.1164 16.933 15.5412 16.9139 15.9478 16.807C15.4218 14.0255 15.1933 10.9871 15.1933 10.9871Z" fill="#F4B184"/>
<path d="M31.8067 10.9871C32.2272 10.9874 32.6428 11.0773 33.0258 11.2508C33.4088 11.4244 33.7504 11.6775 34.0278 11.9935C34.3053 12.3095 34.5122 12.6809 34.6348 13.0831C34.7573 13.4854 34.7928 13.9091 34.7387 14.3261C34.6846 14.7431 34.5423 15.1438 34.3212 15.5014C34.1001 15.8591 33.8053 16.1655 33.4565 16.4002C33.1076 16.635 32.7127 16.7927 32.2981 16.8628C31.8836 16.933 31.4588 16.9139 31.0521 16.807C31.5781 14.0255 31.8067 10.9871 31.8067 10.9871Z" fill="#F4B184"/>
<path d="M26.8395 8.11033C26.6904 7.92855 26.4772 7.81093 26.2439 7.78172C26.0105 7.75252 25.7749 7.81395 25.5856 7.95336C23.7441 9.31104 18.7008 12.6166 15.1831 10.9872C12.4146 9.70209 14.872 2.44463 19.8106 1.12826C25.1091 -0.285408 27.6593 2.56305 27.6593 2.56305C27.6593 2.56305 29.6522 2.30969 31.0695 3.84821C33.0285 5.96963 33.3892 10.229 31.7956 10.9891C30.1479 11.773 27.8713 9.36336 26.8395 8.11033Z" fill="#848484"/>
<path d="M31.8031 10.9872C30.1507 11.773 27.8788 9.36059 26.8461 8.11031C26.6969 7.92828 26.4835 7.81048 26.25 7.78127C26.0164 7.75206 25.7806 7.81366 25.5912 7.95334C23.7553 9.31102 18.7064 12.6148 15.1934 10.9891C15.2062 11.1616 15.6817 17.3038 16.8136 20.0338C17.962 22.8024 21.6081 24.2886 23.4991 24.2886C25.3902 24.2886 29.0363 22.8024 30.1847 20.0338C31.3331 17.2652 31.8031 11.0166 31.8049 10.9854L31.8031 10.9872Z" fill="#FFC89F"/>
<path d="M31.8031 10.9871C30.1507 11.7728 27.8788 9.36041 26.8461 8.11014C26.6969 7.92836 26.4837 7.81073 26.2504 7.78153C26.0171 7.75232 25.7815 7.81376 25.5921 7.95316C23.7516 9.31084 18.7073 12.6146 15.1934 10.9889C15.1934 11.0403 15.2429 11.6315 15.3366 12.5155C15.981 12.7117 16.6513 12.8095 17.3249 12.8055C20.4258 12.8055 23.7029 10.9421 25.7215 9.54768C25.8131 9.48464 25.9244 9.45697 26.0348 9.4698C26.1452 9.48263 26.2472 9.53509 26.3219 9.61744C26.7943 10.1476 27.3055 10.642 27.8512 11.0963C29.0189 12.0528 30.0801 12.5182 31.0963 12.5182C31.2879 12.5183 31.4791 12.5002 31.6672 12.4641C31.759 11.5791 31.8049 10.9953 31.8049 10.9852L31.8031 10.9871Z" fill="#F4BA92"/>
<path d="M35.2996 41.4656L35.9421 46.2656H42.1467C42.1452 44.6605 42.04 43.0571 41.8318 41.4656H35.2996Z" fill="#FFC89F"/>
<path d="M16.0939 46.2656C17.4589 44.3626 19.6125 41.4058 20.3165 40.699C21.3805 39.6351 22.3425 39.9958 25.2277 38.472C26.6046 37.7468 27.093 35.7181 26.8479 34.0979C26.6827 35.25 26.1622 36.3304 25.2304 36.8197C22.3453 38.3435 20.8838 37.9589 19.8208 39.0228C18.7578 40.0867 14.0918 46.2656 14.0918 46.2656H16.0939Z" fill="#2F86C1"/>
<path d="M19.1149 14.6956C19.1481 14.6959 19.1812 14.6935 19.214 14.6883C20.3578 14.524 20.949 13.9301 21.0123 13.8621C21.1334 13.7295 21.1979 13.5548 21.1921 13.3753C21.1864 13.1958 21.1108 13.0257 20.9815 12.9011C20.8523 12.7764 20.6794 12.7072 20.4999 12.708C20.3203 12.7089 20.1481 12.7798 20.02 12.9056C20.02 12.9056 19.6767 13.2287 19.0185 13.3233C18.9281 13.3297 18.8398 13.3538 18.7587 13.3943C18.6776 13.4348 18.6053 13.4909 18.5459 13.5593C18.4259 13.6976 18.3658 13.8778 18.3787 14.0604C18.3916 14.243 18.4765 14.413 18.6147 14.533C18.753 14.653 18.9332 14.7131 19.1158 14.7002L19.1149 14.6956Z" fill="black"/>
<path d="M25.9877 13.8612C26.0511 13.9282 26.6422 14.5222 27.786 14.6874C27.8188 14.6926 27.852 14.695 27.8852 14.6947C28.0678 14.7077 28.248 14.6475 28.3862 14.5275C28.5245 14.4075 28.6094 14.2375 28.6223 14.0549C28.6352 13.8723 28.575 13.6921 28.455 13.5538C28.3351 13.4156 28.1651 13.3307 27.9825 13.3178C27.3243 13.226 27.0012 12.9194 26.981 12.9001C26.8535 12.7685 26.679 12.693 26.4958 12.69C26.3127 12.6871 26.1358 12.7571 26.0042 12.8845C25.8727 13.012 25.7971 13.1865 25.7942 13.3696C25.7912 13.5528 25.8612 13.7296 25.9886 13.8612H25.9877Z" fill="black"/>
<path d="M21.7163 19.8521C21.8058 19.8644 21.8969 19.8589 21.9843 19.836C22.0717 19.8131 22.1537 19.7731 22.2257 19.7185C22.2976 19.6638 22.3581 19.5955 22.4036 19.5175C22.4492 19.4395 22.4789 19.3532 22.4911 19.2637C22.5251 19.0471 22.7041 18.3402 23.5789 18.3402C24.4537 18.3402 24.6318 19.0443 24.6658 19.2628C24.6958 19.4397 24.7936 19.598 24.9384 19.7041C25.0832 19.8102 25.2636 19.8557 25.4414 19.8309C25.6192 19.8062 25.7803 19.7132 25.8907 19.5717C26.0011 19.4302 26.052 19.2512 26.0326 19.0728C25.9344 18.3384 25.2982 16.9614 23.5789 16.9614C21.8595 16.9614 21.2225 18.343 21.1252 19.0728C21.1006 19.2544 21.149 19.4385 21.2598 19.5845C21.3706 19.7306 21.5347 19.8268 21.7163 19.8521Z" fill="black"/>
<path d="M39.1055 30.4655C38.2793 29.3851 36.1588 28.1706 32.7981 26.8598C31.0365 26.1731 29.375 25.6324 28.5755 25.3818V23.0823C29.6146 22.2947 30.4114 21.3327 30.8373 20.2954C31.1421 19.561 31.401 18.599 31.6158 17.5763C31.6846 17.5809 31.7544 17.5837 31.8241 17.5837C32.6779 17.5825 33.5044 17.2825 34.16 16.7356C34.8157 16.1887 35.2592 15.4295 35.4135 14.5898C35.5678 13.75 35.4232 12.8828 35.0048 12.1385C34.5865 11.3942 33.9207 10.8199 33.1231 10.5153C33.256 10.2291 33.3519 9.92711 33.4086 9.61664C33.7409 7.88902 33.2176 5.1039 31.5928 3.34324C30.3077 1.95527 28.6507 1.81207 27.932 1.82125C27.1241 1.10156 24.395 -0.851878 19.6253 0.420427C16.0773 1.36685 13.6006 5.1755 13.3408 8.16257C13.2573 9.11818 13.4097 9.93701 13.7659 10.5594C12.9877 10.8859 12.3465 11.4716 11.9511 12.2171C11.5558 12.9627 11.4306 13.822 11.5969 14.6494C11.7632 15.4767 12.2107 16.221 12.8634 16.7559C13.5161 17.2907 14.3338 17.5832 15.1777 17.5837C15.2475 17.5837 15.3163 17.5837 15.3861 17.5763C15.6009 18.599 15.8597 19.5592 16.1645 20.2954C16.595 21.3327 17.3872 22.2947 18.4264 23.0823V25.3818C17.6287 25.6324 15.9671 26.1731 14.2037 26.8598C10.8449 28.1715 8.7207 29.3851 7.89453 30.4655C6.58367 32.1877 4.13086 38.6024 4.13086 46.3106C4.13086 46.493 4.20311 46.6679 4.3318 46.7971C4.4605 46.9263 4.63514 46.9993 4.8175 47H42.1788C42.3617 47 42.537 46.9274 42.6663 46.7981C42.7956 46.6688 42.8682 46.4934 42.8682 46.3106C42.8691 38.6024 40.4163 32.1877 39.1055 30.4655ZM34.0961 13.9293C34.0953 14.5231 33.8625 15.0932 33.4473 15.5178C33.0321 15.9424 32.4674 16.188 31.8737 16.2021C32.1748 14.436 32.3593 12.6928 32.4474 11.7427C32.9221 11.8792 33.3396 12.1662 33.6369 12.5606C33.9343 12.955 34.0955 13.4353 34.0961 13.9293ZM12.9039 13.9293C12.9048 13.4349 13.0665 12.9542 13.3645 12.5597C13.6626 12.1653 14.0809 11.8785 14.5562 11.7427C14.648 12.6928 14.8316 14.436 15.13 16.2021C14.5356 16.189 13.97 15.9438 13.554 15.5191C13.138 15.0944 12.9047 14.5238 12.9039 13.9293ZM14.715 8.28191C14.9354 5.74832 17.1018 2.52074 19.9814 1.75332C20.8541 1.51157 21.7546 1.38504 22.6601 1.37695C25.6352 1.37695 27.081 2.90261 27.1581 2.98156C27.2316 3.06433 27.3236 3.12847 27.4267 3.16869C27.5298 3.20891 27.641 3.22406 27.7511 3.21289C27.819 3.20463 29.4264 3.0348 30.5775 4.2814C31.8306 5.63908 32.3217 7.97439 32.0518 9.35869C31.9536 9.87 31.758 10.2298 31.5148 10.3464C30.6703 10.7494 29.084 9.71486 27.3784 7.64668C27.1166 7.32845 26.7429 7.12258 26.334 7.07136C25.9251 7.02015 25.5121 7.12747 25.1799 7.37129C23.7194 8.44531 18.7036 11.8418 15.4577 10.3391C14.6581 9.96914 14.6719 8.7767 14.715 8.28191ZM17.4414 19.7666C16.6207 17.7875 16.1489 13.8329 15.9626 11.952C16.404 12.0486 16.8546 12.0966 17.3065 12.0952C20.6699 12.0952 24.3464 9.70109 26.0015 8.48111C26.0491 8.44619 26.1084 8.43092 26.167 8.43843C26.2256 8.44595 26.279 8.47569 26.3163 8.5215C28.3937 11.0386 29.9515 11.7849 31.0567 11.8087C30.8805 13.6236 30.4059 17.7361 29.5641 19.7666C28.9628 21.2051 27.4381 22.4902 25.4819 23.1952C25.3967 23.226 25.3184 23.2732 25.2515 23.3342C25.1846 23.3952 25.1304 23.4687 25.0919 23.5507C25.0534 23.6327 25.0314 23.7214 25.0272 23.8119C25.023 23.9023 25.0367 23.9927 25.0674 24.0779C25.0982 24.163 25.1454 24.2413 25.2064 24.3082C25.2674 24.3752 25.3409 24.4294 25.4229 24.4679C25.5049 24.5064 25.5936 24.5283 25.6841 24.5325C25.7745 24.5367 25.8649 24.5231 25.9501 24.4923C26.376 24.3391 26.7915 24.1582 27.1939 23.9507V25.8913C27.1939 26.871 26.8047 27.8105 26.112 28.5033C25.4192 29.196 24.4797 29.5852 23.5 29.5852C22.5203 29.5852 21.5808 29.196 20.888 28.5033C20.1953 27.8105 19.8061 26.871 19.8061 25.8913V23.9507C20.2085 24.1582 20.624 24.3391 21.0499 24.4923C21.2219 24.5544 21.4116 24.5456 21.5771 24.4679C21.7426 24.3902 21.8705 24.2499 21.9326 24.0779C21.9947 23.9059 21.9859 23.7162 21.9081 23.5507C21.8304 23.3852 21.6901 23.2573 21.5181 23.1952C19.5619 22.4902 18.0372 21.2051 17.4414 19.7666ZM8.99609 31.3027C10.2298 29.6871 15.6973 27.696 18.5108 26.8001C18.6574 27.593 18.9901 28.3398 19.4816 28.9789C19.9732 29.6181 20.6095 30.1314 21.3382 30.4766C20.8865 30.6895 20.4661 30.908 20.1099 31.1035C20.053 30.4114 19.8346 29.6981 19.2388 29.2676C18.9881 29.0873 18.6921 28.9803 18.3841 28.9587C18.076 28.9372 17.768 29.0019 17.4946 29.1455C17.0357 29.3768 16.4316 29.9809 15.9001 32.6118C15.6281 33.9767 14.9572 35.2303 13.9724 36.2139L9.36236 40.8037H5.931C6.65344 36.0762 8.12861 32.4364 8.99609 31.3027ZM5.74648 42.1908H7.97531L5.54912 44.6078C5.58951 43.7816 5.65652 42.9738 5.74648 42.1908ZM6.48728 45.623L14.9427 37.1988C16.1209 36.0236 16.9235 34.5248 17.2486 32.8927C17.6718 30.796 18.0748 30.4141 18.1161 30.3838C18.1639 30.356 18.2186 30.3421 18.2739 30.3437C18.3293 30.3454 18.383 30.3624 18.4291 30.393C18.6522 30.5546 18.8542 31.1357 18.6908 32.24C18.6712 32.3709 18.6898 32.5047 18.7443 32.6254C18.7988 32.746 18.8869 32.8484 18.998 32.9203C19.1092 32.9923 19.2387 33.0307 19.3711 33.031C19.5035 33.0313 19.6331 32.9935 19.7446 32.922C21.4043 31.8599 24.2169 30.5353 25.2754 30.9254C25.7692 31.109 26.1474 31.9205 26.2172 32.9532C26.298 34.1604 25.9244 35.7071 24.9118 36.2396C23.5468 36.9602 22.5123 37.2337 21.6815 37.454C20.7764 37.6936 19.9943 37.9011 19.326 38.5685C18.3594 39.5342 14.6609 44.392 13.731 45.623H6.48728ZM35.5337 37.8919C35.5046 37.7147 35.4076 37.5557 35.2633 37.4489C35.1189 37.342 34.9386 37.2956 34.7606 37.3194C34.5826 37.3433 34.4209 37.4357 34.3099 37.5768C34.1988 37.718 34.1472 37.8969 34.1659 38.0755L35.1756 45.624H15.4632C17.1697 43.3841 19.6106 40.2364 20.3009 39.5452C20.7066 39.1404 21.2354 38.9999 22.0349 38.7888C22.8859 38.5629 24.0545 38.2545 25.5553 37.4605C27.1223 36.6343 27.708 34.5542 27.5932 32.8605C27.5088 31.6084 27.0865 30.6097 26.4265 30.0369C27.5103 29.2704 28.2513 28.1103 28.491 26.8047C31.3082 27.7006 36.7711 29.6908 38.0057 31.3073C38.8714 32.441 40.3466 36.0762 41.069 40.8156H35.9284L35.5337 37.8919ZM36.57 45.623L36.1111 42.1935H41.2517C41.3774 43.2951 41.4601 44.4416 41.4839 45.623H36.57Z" fill="black"/>
<path d="M12.3311 22.1406C12.8653 22.2911 13.3243 22.2324 13.6942 22.1911C13.9449 22.1608 14.1431 22.1369 14.2983 22.18C14.5516 22.2516 14.7472 22.5188 14.7967 22.6097C14.8819 22.7718 15.0281 22.8934 15.203 22.9478C15.3779 23.0022 15.5672 22.9849 15.7294 22.8997C15.8915 22.8145 16.0132 22.6684 16.0676 22.4935C16.122 22.3186 16.1047 22.1292 16.0195 21.9671C15.9736 21.8753 15.5412 21.0941 14.6719 20.849C14.2515 20.7315 13.8677 20.7774 13.529 20.8187C13.2307 20.8545 12.9727 20.8857 12.7028 20.8095C12.3467 20.7095 12.0979 20.3184 12.0309 20.1752C11.9941 20.0924 11.9413 20.0177 11.8756 19.9554C11.8099 19.893 11.7326 19.8442 11.648 19.8117C11.5635 19.7793 11.4733 19.7637 11.3828 19.7661C11.2922 19.7685 11.203 19.7886 11.1203 19.8255C11.0375 19.8623 10.9628 19.915 10.9005 19.9807C10.8381 20.0464 10.7893 20.1238 10.7568 20.2083C10.6912 20.3791 10.6961 20.5689 10.7705 20.7361C10.8219 20.8508 11.291 21.8477 12.3311 22.1406Z" fill="black"/>
<path d="M34.9673 20.1769C34.9012 20.3201 34.6524 20.7121 34.2953 20.8121C34.0273 20.8883 33.7693 20.8571 33.4691 20.8213C33.1304 20.78 32.7467 20.7341 32.3263 20.8516C31.457 21.0967 31.0246 21.8816 30.9787 21.9697C30.8935 22.1318 30.8762 22.3212 30.9306 22.4961C30.985 22.671 31.1066 22.8171 31.2688 22.9023C31.4309 22.9876 31.6203 23.0049 31.7952 22.9505C31.9701 22.8961 32.1162 22.7744 32.2014 22.6123C32.2014 22.6123 32.4025 22.2662 32.6999 22.1827C32.855 22.1395 33.0533 22.1634 33.3039 22.1937C33.6711 22.2377 34.1301 22.2937 34.6671 22.1432C35.7108 21.8494 36.1762 20.8534 36.2276 20.7414C36.2953 20.5755 36.2958 20.3897 36.2289 20.2234C36.1621 20.0571 36.0332 19.9233 35.8695 19.8503C35.7057 19.7774 35.5201 19.7709 35.3517 19.8324C35.1833 19.8938 35.0455 20.0184 34.9673 20.1796V20.1769Z" fill="black"/>
<path d="M13.8871 23.8295C13.4997 23.902 13.2197 24.1168 12.9948 24.2885C12.8011 24.4363 12.6754 24.529 12.5285 24.5565C12.3642 24.5877 12.1053 24.4133 12.0016 24.3132C11.8722 24.184 11.6967 24.1114 11.5138 24.1115C11.3309 24.1116 11.1555 24.1843 11.0262 24.3137C10.897 24.4431 10.8244 24.6186 10.8245 24.8015C10.8245 24.9844 10.8973 25.1598 11.0267 25.2891C11.0992 25.3625 11.6977 25.9399 12.4872 25.9399C12.5864 25.9401 12.6853 25.9309 12.7828 25.9124C13.261 25.8206 13.5924 25.569 13.8338 25.3836C13.9257 25.3019 14.0298 25.235 14.1423 25.1853C14.2249 25.1688 14.3855 25.2505 14.4663 25.3148C14.533 25.379 14.6118 25.4293 14.6983 25.4624C14.7847 25.4956 14.877 25.511 14.9695 25.5078C15.062 25.5046 15.153 25.4828 15.2369 25.4438C15.3209 25.4047 15.3961 25.3491 15.4581 25.2804C15.5201 25.2116 15.5677 25.1311 15.598 25.0436C15.6282 24.9561 15.6406 24.8634 15.6343 24.7711C15.628 24.6787 15.6032 24.5885 15.5614 24.5059C15.5195 24.4233 15.4615 24.35 15.3907 24.2903C15.32 24.227 14.6765 23.6835 13.8871 23.8295Z" fill="black"/>
<path d="M31.3724 24.8099C31.372 24.9446 31.411 25.0764 31.4847 25.1892C31.5584 25.302 31.6634 25.3907 31.787 25.4444C31.9105 25.4981 32.047 25.5144 32.1797 25.4914C32.3124 25.4684 32.4355 25.407 32.5337 25.3148C32.6145 25.2505 32.7751 25.1688 32.8577 25.1853C32.9702 25.235 33.0743 25.3019 33.1662 25.3836C33.4076 25.5672 33.739 25.8224 34.2172 25.9124C34.3147 25.9309 34.4136 25.9401 34.5128 25.9399C35.3023 25.9399 35.9008 25.3625 35.9733 25.2891C36.1027 25.1598 36.1754 24.9844 36.1755 24.8015C36.1756 24.6186 36.103 24.4431 35.9738 24.3137C35.8445 24.1843 35.6691 24.1116 35.4862 24.1115C35.3033 24.1114 35.1278 24.184 34.9984 24.3133C34.8947 24.4133 34.6358 24.5887 34.4715 24.5565C34.3246 24.529 34.1961 24.4363 34.0052 24.2885C33.7803 24.1168 33.5003 23.902 33.1129 23.8295C32.3235 23.6817 31.68 24.227 31.6084 24.2885C31.5339 24.3534 31.4743 24.4335 31.4336 24.5235C31.3929 24.6135 31.372 24.7111 31.3724 24.8099Z" fill="black"/>
</svg>
