<svg width="14" height="14" viewBox="0 0 14 14" fill="none" xmlns="http://www.w3.org/2000/svg">
<g clip-path="url(#clip0_7297_5525)">
<path d="M1.74548 9.53298C1.83125 9.74935 1.85035 9.98642 1.80031 10.2137L1.17906 12.1329C1.15904 12.2302 1.16422 12.331 1.1941 12.4258C1.22398 12.5206 1.27757 12.6061 1.34978 12.6744C1.422 12.7426 1.51046 12.7913 1.60676 12.8158C1.70306 12.8402 1.80402 12.8397 1.90006 12.8142L3.89098 12.2321C4.10548 12.1895 4.32762 12.2081 4.53206 12.2857C5.7777 12.8674 7.18878 12.9905 8.51632 12.6332C9.84386 12.276 11.0026 11.4613 11.788 10.3329C12.5734 9.20461 12.9351 7.83513 12.8092 6.46613C12.6833 5.09713 12.0779 3.81659 11.0999 2.85043C10.1218 1.88427 8.83397 1.29459 7.46353 1.18542C6.0931 1.07625 4.72814 1.45462 3.60949 2.25376C2.49083 3.0529 1.69037 4.22146 1.34933 5.55327C1.00829 6.88507 1.14859 8.29454 1.74548 9.53298Z" stroke="#1351B4" stroke-width="1.25" stroke-linecap="round" stroke-linejoin="round"/>
<path d="M4.66699 7H4.67309" stroke="#1351B4" stroke-width="1.25" stroke-linecap="round" stroke-linejoin="round"/>
<path d="M7 7H7.00609" stroke="#1351B4" stroke-width="1.25" stroke-linecap="round" stroke-linejoin="round"/>
<path d="M9.33301 7H9.3391" stroke="#1351B4" stroke-width="1.25" stroke-linecap="round" stroke-linejoin="round"/>
</g>
<defs>
<clipPath id="clip0_7297_5525">
<rect width="14" height="14" fill="white"/>
</clipPath>
</defs>
</svg>
