<svg width="418" height="235" viewBox="0 0 418 235" fill="none" xmlns="http://www.w3.org/2000/svg">
<rect width="418" height="235" rx="8" fill="#EBF0E8"/>
<g clip-path="url(#clip0_8368_3411)">
<g opacity="0.56">
<path d="M233.399 9.97089C233.321 9.74558 233.236 9.50857 233.051 9.35403C232.435 8.83977 231.592 9.66376 231.264 10.3897C229.185 14.985 229.436 19.8179 225.947 23.8483C225.235 24.6716 224.383 25.4527 223.317 25.7164C221.587 26.1436 219.875 25.1203 218.317 24.2658C216.759 23.4113 214.763 22.7035 213.276 23.6723C212.895 23.9203 212.586 24.2599 212.22 24.5275C209.999 26.1508 206.488 23.782 204.255 23.0834C202.984 22.6853 201.335 22.3944 200.535 23.445C199.074 25.3621 198.863 27.7787 196.511 27.2561C194.896 26.8974 193.267 26.4355 191.733 26.9189C190.37 27.3488 189.254 28.4916 187.827 28.6039C186.057 28.7429 184.44 27.2364 182.682 27.4832C180.907 27.7332 179.815 29.6448 178.09 30.1279C176.13 30.6772 174.793 29.524 173.301 28.1578C171.168 26.204 170.158 23.1347 170.722 20.3218C171.047 18.703 171.843 17.2148 172.309 15.6298C172.775 14.0448 172.863 12.2065 171.878 10.8709C170.96 9.62545 169.235 8.98911 168.69 7.54696C168.3 6.51519 168.574 5.19186 167.766 4.4315C167.101 3.8062 165.983 3.91724 165.207 4.40163C164.43 4.88603 163.894 5.65548 163.309 6.35285C160.407 9.81181 155.771 11.7884 151.221 11.5078C150.077 11.4371 148.594 11.4208 148.178 12.4714C147.994 12.9377 148.113 13.4669 148.002 13.9551C147.796 14.8642 146.814 15.4382 145.869 15.4973C144.924 15.5564 144.006 15.2168 143.122 14.8837C142.442 14.6272 141.725 14.3434 141.29 13.7694C140.941 13.3084 140.822 12.7195 140.549 12.2111C139.448 10.1611 136.513 10.1592 134.174 10.443C133.709 10.4994 133.196 10.5813 132.903 10.9403C132.659 11.2403 132.637 11.6565 132.649 12.0409C132.736 14.6298 134.082 17.0998 136.073 18.764C137.833 20.2354 140.503 20.19 142.122 21.5269C145.69 24.4723 140.659 30.5844 136.973 31.0986C135.668 31.2811 134.33 30.909 133.025 31.0954C130.766 31.4181 130.634 33.8485 128.36 34.5602C125.774 35.3692 122.595 34.2089 120.163 33.3985C118.562 32.8648 116.814 32.2129 116.018 30.746C115.446 29.6896 115.465 28.352 114.703 27.4189C113.699 26.191 111.772 26.1917 110.258 26.704C108.743 27.217 107.359 28.1247 105.779 28.3818C104.144 28.6481 102.49 28.1883 100.875 27.8247C99.259 27.4611 97.5148 27.1988 95.9858 27.8273C94.4568 28.4559 93.3359 30.2967 94.066 31.7603C94.7018 33.0356 96.3054 33.431 97.6429 33.966C98.9804 34.5017 100.386 35.7764 99.8869 37.1088C99.0234 39.4113 88.9265 37.751 93.1411 43.1319C94.6965 45.1182 97.8462 45.0455 99.2089 47.6493C100.482 50.081 99.9344 53.2049 98.9686 55.6385C97.7221 58.7793 95.731 61.7052 95.3276 65.0531C94.9771 67.9653 95.632 71.5204 93.2745 73.3158C91.6894 74.5229 89.4705 74.2742 87.4655 74.2807C81.3291 74.3008 75.293 77.4955 71.895 82.5212C71.359 83.3141 70.8698 84.2121 70.9391 85.1614C71.0797 87.084 73.4399 88.6333 72.8444 90.4696C72.2892 92.1819 69.861 92.1897 68.264 93.063C66.2214 94.1799 65.6028 96.9207 66.2392 99.1323C66.8757 101.344 68.4654 103.148 70.0102 104.872C74.2163 109.568 79.9262 114.737 86.0342 112.984C88.5997 112.247 91.9158 110.555 93.4421 112.712C94.5691 114.306 93.32 116.535 93.7973 118.419C94.8455 122.554 102.43 120.702 106.519 119.488C110.785 118.22 114.741 115.053 118.858 112.41C133.824 102.804 125.681 119.711 132.287 125.184C135.618 127.943 140.167 128.736 144.506 129.101C148.845 129.467 153.319 129.532 157.335 131.186C164.442 134.112 168.87 142.283 167.378 149.717C166.952 151.834 166.194 154.306 167.632 155.935C169.275 157.795 172.291 156.973 174.717 156.359C177.142 155.744 180.629 156.196 180.876 158.647C181.012 160.003 179.956 161.284 180.14 162.634C180.373 164.351 182.351 165.17 183.571 166.419C186.681 169.601 184.49 174.734 183.28 178.985C182.084 183.185 182.061 187.611 182.046 191.972C182.038 194.271 182.088 196.754 183.497 198.589C185.471 201.162 192.327 200.989 195.404 202.012C196.788 202.472 198.012 203.145 198.695 204.759C200.071 208.005 196.571 212.644 199.367 214.837C201.316 216.366 204.624 214.845 206.492 216.469C209.289 218.9 204.819 223.607 206.348 226.956C207.16 228.734 209.472 229.545 210.147 231.378C211.279 234.455 207.277 236.712 204.261 238.096C198.453 240.76 193.757 245.257 189.181 249.67C187.382 251.405 185.426 253.757 186.31 256.077C187.154 258.29 189.968 258.871 192.282 259.508C199.377 261.462 205.304 267.106 207.517 274.018C208.249 276.306 208.816 279.002 210.966 280.135C213.339 281.385 213.474 276.871 214.746 274.538C218.274 268.066 223.019 262.239 228.668 257.438C234.52 252.465 239.354 248.62 243.307 242.071C246.852 236.199 247.222 229.719 250.394 223.786C250.962 222.724 251.764 221.668 252.937 221.336C253.657 221.132 254.458 221.224 255.134 220.905C256.17 220.417 256.548 219.174 257.304 218.323C258.278 217.226 259.821 216.842 261.265 216.515C267.975 214.994 274.685 213.473 281.394 211.952C284.889 211.16 288.459 210.338 291.493 208.456C292.275 207.971 293.029 207.403 293.528 206.639C293.955 205.985 294.175 205.217 294.587 204.551C295.655 202.829 297.806 202.182 298.942 200.504C300.112 198.776 299.378 196.686 301.606 195.467C302.465 194.998 303.465 194.837 304.345 194.406C305.224 193.976 306.025 193.108 305.869 192.155C305.812 191.805 305.631 191.483 305.57 191.134C305.368 189.983 306.442 189.059 307.238 188.193C310.669 184.46 310.83 177.614 313.431 173.169C315.16 170.214 316.774 166.766 315.763 163.505C315.604 162.995 315.385 162.439 315.601 161.951C315.801 161.497 316.311 161.262 316.612 160.867C317.337 159.918 316.622 158.593 316.593 157.407C316.528 154.7 320.128 152.583 319.341 149.989C319.188 149.487 318.876 149.039 318.762 148.527C318.216 146.076 321.3 145.474 322.357 143.888C324.723 140.336 323.351 136.731 328.063 134.622C329.646 133.913 331.465 133.376 332.428 131.95C333.417 130.486 333.244 128.412 334.451 127.116C334.815 126.725 335.284 126.434 335.614 126.014C336.059 125.447 336.207 124.705 336.6 124.103C337.763 122.322 340.624 122.292 341.829 120.539C342.227 119.959 342.408 119.228 342.926 118.746C343.729 117.999 345.024 118.118 345.996 117.6C349.528 115.721 348.453 108.216 350.104 104.954C350.64 103.894 351.286 102.876 351.623 101.739C352.221 99.7115 351.774 97.5343 352.019 95.4376C352.198 93.9 352.748 92.4235 352.95 90.8781C353.344 87.8412 351.364 86.1614 348.104 86.6094C347.411 86.7048 346.737 86.9263 346.039 86.9685C344.428 87.0652 342.876 86.1685 341.873 84.9257C340.87 83.6829 340.345 82.1323 339.995 80.5837C339.609 78.8688 338.854 76.6319 337.07 76.7234C336.502 76.7526 335.983 77.0461 335.424 77.1416C335.013 77.2119 334.625 77.1788 334.26 77.0663C331.47 76.2061 329.536 76.5552 326.833 75.4501C326.131 75.1631 325.848 74.282 326.004 73.5502C326.161 72.8184 326.646 72.2028 327.117 71.6165C327.228 71.4788 320.931 69.6633 320.536 69.6198C315.723 69.0841 310.761 69.6146 306.092 68.3478C302.187 67.2881 298.733 65.0336 294.934 63.648C291.136 62.2623 286.518 61.8922 283.338 64.3596C280.768 66.3533 280.033 64.5725 280.52 61.3568C280.9 58.845 280.491 56.1849 279.295 53.9295C276.919 49.4511 271.92 46.6357 266.809 46.1493C265.452 46.0202 264.07 46.0505 262.715 46.2418C260.798 46.5123 251.877 43.4239 250.039 42.8163C246.952 41.7962 243.571 42.5891 240.471 43.5696C235.286 45.2084 232.217 41.1017 236.639 37.9368C237.063 37.6338 237.486 37.3388 237.9 37.0497C239.906 35.6491 244.578 32.0979 243.553 29.3032C243.227 28.415 242.584 27.6819 241.984 26.9436C237.963 21.9886 235.495 16.0012 233.399 9.97089Z" fill="#9BAD58"/>
</g>
</g>
<path d="M194.553 67.4967C195.353 68.8112 196.311 69.9918 197.123 70.8168C199.334 73.0649 202.684 74.2973 205.948 74.0634C209.967 73.7754 215.447 70.703 218.081 67.6961C222.15 63.0508 215.824 63.2344 215.179 60.0878C214.768 58.083 216.68 56.5345 215.313 54.3036C214.174 52.4435 211.691 51.7747 209.672 52.4089C207.806 52.9956 206.336 54.5729 205.646 56.4035C205.859 54.0992 203.153 52.0764 201.004 52.9316C199.683 53.4571 198.811 54.778 198.46 56.1551C198.11 57.5323 198.203 58.9785 198.305 60.3959C198.138 58.075 193.484 60.3844 192.97 61.4649C192.086 63.3193 193.581 65.9 194.553 67.4967Z" fill="#09222F"/>
<path d="M191.794 146.238C191.957 147.1 192.048 147.976 192.061 148.86C192.113 152.479 190.861 156.002 189.211 159.224C188.368 160.872 187.386 162.501 185.954 163.674C184.316 165.014 182.21 165.656 180.116 165.96C172.997 166.997 165.892 164.493 159.133 162.03C155.885 160.846 152.638 159.662 149.389 158.479C146.802 157.536 143.356 157.09 142.028 154.681C139.653 150.371 140.596 143.239 140.837 138.527C141.138 132.74 143.388 125.889 149.686 124.338C153.159 123.484 157.42 124.509 160.883 125.046C165.545 125.77 170.123 127.035 174.494 128.813C178.859 130.589 183.079 132.921 186.378 136.286C189.057 139.021 191.09 142.502 191.794 146.238Z" fill="#FFCA00"/>
<path d="M263.098 115.391C263.314 114.864 263.525 114.331 263.733 113.792C266.437 106.742 262.567 99.4265 254.561 102.161C251.943 103.055 249.309 103.956 246.872 105.267C243.936 106.845 241.343 108.987 238.505 110.735C235.512 112.578 232.268 113.971 229.038 115.356C225.584 116.837 222.13 118.319 218.675 119.8C215.001 121.376 211.298 122.961 207.388 123.796C206.527 123.98 205.632 124.138 204.897 124.621C203.384 125.616 202.996 127.78 203.583 129.493C204.853 133.195 208.699 136.133 212.28 137.239C224.878 141.134 239.348 139.976 250.214 132.503C256.537 128.154 260.28 122.246 263.098 115.391Z" fill="#5579CF"/>
<path d="M162.149 168.374C157.824 165.348 156.58 159.575 155.923 154.338C155.675 152.363 155.466 150.328 155.99 148.408C156.992 144.735 160.441 142.273 163.912 140.708C167.494 139.093 179.547 124.836 183.455 125.25C187.151 125.641 182.531 140.539 185.516 142.754C187.616 144.312 189.53 146.196 190.756 148.506C193.419 153.52 192.417 159.846 189.628 164.791C187.591 168.406 182.724 175.813 177.99 175.64C175.376 175.545 173.016 172.813 170.707 171.785C167.881 170.526 164.738 170.185 162.149 168.374Z" fill="#F66647"/>
<path d="M210.148 99.8779C210.268 99.8671 210.388 99.8541 210.507 99.8404C214.155 99.4164 217.996 97.9285 219.91 94.6113C221.149 92.4618 221.609 89.9444 221.737 87.4666C221.839 85.5013 221.742 83.5116 221.246 81.6068C220.604 79.1413 219.291 76.8629 217.536 75.0149C215.026 72.3716 212.5 71.872 209.292 70.6691C201.257 67.6557 192.503 71.3234 189.012 79.1485C186.786 84.14 186.894 89.9602 188.484 95.1894C189.713 99.2336 192.19 99.785 196.194 99.9787C198.912 100.11 201.633 99.8268 204.353 99.8556C206.285 99.8771 208.225 100.055 210.148 99.8779Z" fill="#09222F"/>
<path d="M236.242 129.293C233.451 125.429 223.967 120.168 218.888 118.446C210.574 115.628 200.134 116.163 192.167 119.887C183.879 123.761 181.521 126.113 176.715 133.897C198.094 133.869 215.173 139.104 236.498 140.628C235.164 135.701 239.057 133.188 236.242 129.293Z" fill="#A46259"/>
<path d="M216.556 97.3689C216.72 91.905 216.128 86.5139 213.227 82.7684C211.094 80.0142 207.633 78.7011 204.268 78.2915C200.604 77.8452 197.027 78.956 193.473 79.6751C190.281 80.3209 189.222 81.9434 188.544 85.2289C188.387 85.9898 188.301 86.763 188.243 87.5376C187.953 91.4098 188.506 95.184 189.117 98.9914C189.561 101.753 190.318 104.569 191.876 106.927C193.355 109.165 197.674 110.854 197.708 110.607C197.68 112.825 198.589 115.955 196.684 117.637C195.669 118.532 194.133 118.633 193.111 119.52C199.252 123.063 203.951 126.925 211.484 124.338C212.631 123.944 221.601 119.532 222.149 120.081C220.317 118.464 217.462 118.074 216.135 116.022C215.231 114.626 215.302 112.837 215.404 111.177C215.645 107.284 216.408 102.296 216.556 97.3689Z" fill="#A46259"/>
<mask id="mask0_8368_3411" style="mask-type:luminance" maskUnits="userSpaceOnUse" x="190" y="76" width="27" height="50">
<path d="M216.01 102.228C216 100.611 216.019 98.9889 216.075 97.3555C216.254 92.1227 216.218 86.7662 213.581 82.0884C210.917 77.361 206.146 76.1495 200.83 76.9766C196.266 77.6871 194.447 79.2694 192.984 83.2985C191.13 88.4039 190.196 93.0722 190.213 98.5447C190.221 101.2 190.351 103.943 191.51 106.332C192.669 108.72 195.109 110.675 197.756 110.477C197.636 115.032 196.963 122.3 201.881 124.223C206.301 125.951 215.84 125.713 216.685 119.463C216.789 118.699 216.737 117.924 216.685 117.156C216.345 112.125 216.041 107.202 216.01 102.228Z" fill="white"/>
</mask>
<g mask="url(#mask0_8368_3411)">
<path d="M194.417 114.475C195.804 114.981 197.345 114.441 198.659 113.768C200.699 112.722 202.631 111.264 203.658 109.214C201.814 110.121 199.762 110.599 197.708 110.603C196.937 110.604 196.167 110.54 195.399 110.475C194.333 110.386 193.268 110.296 192.202 110.206" fill="#09222F"/>
</g>
<path d="M192.868 101.85C193.855 104.061 194.933 105.174 196.764 105.204C199.194 105.244 200.328 103.52 200.861 101.661" fill="white"/>
<path d="M214.386 79.3324C211.062 76.0829 207.94 74.3351 203.195 74.0565C198.822 73.7995 194.354 74.8922 190.664 77.2728C188.382 78.7457 187.889 80.7261 187.526 83.3327C187.331 84.7293 187.31 86.1503 187.46 87.5519C187.521 88.1141 188.157 90.0837 188.474 88.4762C188.902 86.3087 189.33 84.1411 189.758 81.9736C196.416 82.6287 203.221 83.2744 209.729 81.7245C210.198 84.7912 211.392 87.7448 213.185 90.2766C213.544 90.7841 213.951 91.2945 214.522 91.5443C215.641 92.0353 217.712 91.2456 218.213 90.129C218.691 89.0629 217.987 87.526 217.84 86.4548C217.476 83.7898 216.322 81.2249 214.386 79.3324Z" fill="#09222F"/>
<path d="M170.118 169.981C170.527 170.551 171.16 170.907 171.744 171.296C176.754 174.632 175.396 180.468 175.139 185.625C174.82 192.034 174.529 198.444 174.268 204.856C173.995 211.54 173.753 218.225 173.543 224.912C173.473 227.122 172.456 231.838 173.045 234.274H256.944C251.857 214.638 248.709 195.388 245.896 175.259C245.333 171.232 244.785 167.035 246.063 163.176C248.566 155.622 261.884 153.331 256.6 145.462C248.726 133.735 236.839 127.523 225.332 119.964C221.277 124.23 215.525 126.836 209.644 127.073C205.951 127.222 202.345 126.433 199.036 124.796C196.569 123.575 193.022 119.243 190.15 120.81C187.353 122.335 184.556 123.86 181.815 125.484C175.455 129.25 173.152 135.803 172.076 142.861C170.798 151.244 168.104 159.401 169.472 168.034C169.579 168.716 169.716 169.42 170.118 169.981Z" fill="#F66647"/>
<path d="M183.005 150.07C183.005 151.993 181.447 153.552 179.523 153.552C177.601 153.552 176.041 151.994 176.041 150.07C176.041 148.147 177.6 146.588 179.523 146.588C181.447 146.588 183.005 148.147 183.005 150.07Z" fill="#FFCA00"/>
<path d="M201.537 161.302C201.537 163.224 199.978 164.784 198.055 164.784C196.131 164.784 194.573 163.225 194.573 161.302C194.573 159.379 196.131 157.82 198.055 157.82C199.978 157.82 201.537 159.379 201.537 161.302Z" fill="#09222F"/>
<path d="M227.37 201.51C229.293 201.51 230.852 199.951 230.852 198.028C230.852 196.105 229.293 194.546 227.37 194.546C225.447 194.546 223.888 196.105 223.888 198.028C223.888 199.951 225.447 201.51 227.37 201.51Z" fill="#09222F"/>
<path d="M208.052 187.359C209.975 187.359 211.534 185.8 211.534 183.877C211.534 181.954 209.975 180.395 208.052 180.395C206.129 180.395 204.57 181.954 204.57 183.877C204.57 185.8 206.129 187.359 208.052 187.359Z" fill="#FFCA00"/>
<path d="M226.696 226.015C228.619 226.015 230.178 224.456 230.178 222.533C230.178 220.61 228.619 219.051 226.696 219.051C224.773 219.051 223.214 220.61 223.214 222.533C223.214 224.456 224.773 226.015 226.696 226.015Z" fill="#FFCA00"/>
<path d="M206.13 215.16C208.053 215.16 209.612 213.601 209.612 211.678C209.612 209.755 208.053 208.196 206.13 208.196C204.207 208.196 202.648 209.755 202.648 211.678C202.648 213.601 204.207 215.16 206.13 215.16Z" fill="#09222F"/>
<path d="M182.319 228.638C184.242 228.638 185.801 227.079 185.801 225.156C185.801 223.233 184.242 221.674 182.319 221.674C180.396 221.674 178.837 223.233 178.837 225.156C178.837 227.079 180.396 228.638 182.319 228.638Z" fill="#FFCA00"/>
<path d="M212.319 148.161C214.242 148.161 215.801 146.602 215.801 144.679C215.801 142.756 214.242 141.197 212.319 141.197C210.396 141.197 208.837 142.756 208.837 144.679C208.837 146.602 210.396 148.161 212.319 148.161Z" fill="#FFCA00"/>
<path d="M230.964 136.93C232.887 136.93 234.446 135.371 234.446 133.448C234.446 131.525 232.887 129.966 230.964 129.966C229.041 129.966 227.482 131.525 227.482 133.448C227.482 135.371 229.041 136.93 230.964 136.93Z" fill="#09222F"/>
<path d="M188.621 193.648C188.621 195.571 187.063 197.13 185.139 197.13C183.216 197.13 181.657 195.572 181.657 193.648C181.657 191.726 183.216 190.166 185.139 190.166C187.063 190.166 188.621 191.726 188.621 193.648Z" fill="#09222F"/>
<path d="M231.413 166.693C231.413 168.616 229.855 170.175 227.931 170.175C226.009 170.175 224.449 168.616 224.449 166.693C224.449 164.77 226.008 163.211 227.931 163.211C229.854 163.211 231.413 164.77 231.413 166.693Z" fill="#FFCA00"/>
<path d="M173.356 173.818C175.298 173.739 176.743 175.557 177.66 177.27" stroke="#09222F" stroke-miterlimit="10"/>
<path d="M188.288 95.1424C188.852 94.0122 189.634 93.0562 190.889 92.9129C192.144 92.7704 193.792 93.6357 193.968 94.8861" stroke="#09222F" stroke-miterlimit="10"/>
<path d="M199.167 94.2388C199.858 93.182 201.441 92.3794 202.704 92.3837C203.967 92.388 205.343 93.5067 205.511 94.6297" stroke="#09222F" stroke-miterlimit="10"/>
<path d="M217.733 77.0148C213.313 75.2352 209.147 72.4587 204.445 72.7085C208.03 72.5185 210.844 68.2669 210.475 64.998C206.486 65.7833 202.923 68.4994 201.109 72.1384C201.431 71.222 200.906 70.2444 200.392 69.4194C199.192 67.488 197.957 65.5782 196.689 63.6907C194.209 66.0331 194.924 69.1711 196.123 71.9037C197.207 74.3736 191.937 74.6342 190.368 75.4253C190.201 75.9681 190.033 76.5101 189.866 77.0529C189.766 77.3797 189.657 77.7202 189.416 77.9628C189.219 78.1601 188.954 78.2724 188.728 78.4344C187.694 79.1751 187.458 80.861 187.225 82.0071C186.907 83.5757 186.587 85.1558 186.566 86.7568C186.544 88.3578 186.837 89.9984 187.669 91.3661C188.236 87.8438 189.804 82.4649 193.163 80.6876C194.421 80.0224 195.864 79.7913 197.285 79.728C204.09 79.4235 211.249 83.418 213.366 89.8926C214.001 91.8312 214.467 94.2507 216.389 94.9367C220.097 96.2605 221.42 91.6066 221.945 88.902C222.058 88.3196 223.24 81.9984 223.011 81.8221C222.492 81.4225 221.972 81.023 221.453 80.6235C221.374 80.563 221.292 80.4975 221.26 80.4039C221.234 80.3283 221.245 80.2463 221.257 80.1678C221.356 79.4803 221.456 78.7929 221.556 78.1061C220.215 77.8484 219.001 77.5259 217.733 77.0148Z" fill="#5579CF"/>
<path d="M317.407 234.273C317.206 227.697 316.601 221.066 315.491 214.622C314.674 209.877 313.589 205.236 312.205 200.794C307.144 184.545 290.466 173.534 274.555 169.64C271.45 168.88 268.194 168.345 264.979 168.672C255.985 169.586 250.026 176.725 246.326 183.532C237.697 199.406 234.814 216.817 233.476 234.274H317.407V234.273Z" fill="#FFCA00"/>
<path d="M273.863 49.717C275.326 49.1296 276.703 48.6984 277.871 48.4508C279.226 48.1636 280.658 47.9865 281.974 48.4141C283.29 48.8417 284.448 50.023 284.445 51.4073C284.442 53.171 282.745 54.3098 281.891 55.6214C285.926 54.9599 289.478 53.1573 293.767 53.1055C295.236 53.0875 296.841 53.2372 297.904 54.2501C299.196 55.4803 299.202 57.6378 298.352 59.2057C297.502 60.7735 295.986 61.8606 294.457 62.7762C297.091 62.1946 299.885 61.6208 302.435 62.4984C304.985 63.3759 307.031 66.3007 305.963 68.7771C304.78 71.5198 301.062 71.7919 298.079 71.6364C301.293 71.951 304.957 73.4634 305.601 76.6273C306.245 79.7954 303.229 82.762 300.041 83.3005C296.852 83.8382 293.653 82.6555 290.636 81.4943C291.879 83.1162 292.047 85.4889 291.044 87.2699C290.042 89.0508 287.925 90.1371 285.894 89.9147C283.919 89.698 282.252 88.4037 280.724 87.1352C273.539 81.1726 264.002 75.302 260.445 66.2388C257.642 59.0955 266.767 52.5663 273.863 49.717Z" fill="#09222F"/>
<path d="M293.832 110.757C291.637 106.185 286.845 103.298 281.904 102.154C275.055 100.57 264.387 99.1105 257.724 102.22C253.309 104.281 250.983 109.102 249.618 113.527C247.885 119.144 246.334 122.656 243.398 127.91C237.228 138.952 234.008 151.648 234.285 164.301C234.448 171.763 236.562 180.285 243.264 183.57C246.337 185.076 249.88 185.196 253.301 185.254C265.12 185.452 276.948 185.239 288.753 184.617C289.889 184.557 291.085 184.474 292.036 183.85C293.09 183.159 293.646 181.938 294.148 180.782C297.433 173.218 299.604 167.725 300.082 159.567C300.57 151.237 300.593 142.951 300.593 134.613C300.488 129.902 300.477 126.868 298.209 122.921C295.991 119.062 295.727 114.706 293.832 110.757Z" fill="#09222F"/>
<path d="M254.123 187.528C254.07 186.815 253.947 186.103 253.85 185.394C252.759 177.373 256.725 170.435 257.648 162.744C258.3 157.314 257.677 151.86 257.644 146.417C257.627 143.709 257.478 140.533 258.274 137.914C258.935 135.741 259.898 134.213 260.107 131.808C260.543 126.802 261.181 121.814 262.017 116.859C262.792 112.272 263.4 107.567 265.213 103.292C265.811 101.879 266.281 100.305 265.876 98.8239C265.521 97.5267 250.779 103.51 249.3 104.391C245.934 106.399 243.312 109.028 241.007 111.976C239.392 114.041 242.274 118.026 241.635 120.645C235.065 147.6 229.578 149.09 228.169 163.057C227.39 170.777 226.954 178.744 229.472 186.323C237.675 186.928 245.899 187.264 254.123 187.528Z" fill="#5579CF"/>
<path d="M284.111 82.8526C284.275 78.0569 284.354 72.2576 281.263 68.2659C276.689 62.3601 265.518 62.4241 260.538 67.9275C259.396 69.1895 258.739 67.2552 258.136 68.8468C254.82 77.5976 257.182 89.569 259.911 92.4233C262.347 94.9702 266.048 96.2502 266.084 96.0004C265.861 97.5848 265.648 99.7538 265.724 101.368C265.876 104.547 266.572 108.412 269.917 109.72C274.338 111.448 283.876 111.211 284.722 104.96C284.825 104.196 284.774 103.422 284.721 102.653C284.381 97.6222 284.077 92.699 284.046 87.7254C284.036 86.1079 284.054 84.486 284.111 82.8526Z" fill="#8F5952"/>
<path d="M279.699 81.5411C279.699 84.1016 281.775 86.1777 284.336 86.1777C286.896 86.1777 288.972 84.1016 288.972 81.5411C288.972 78.9805 286.896 76.9044 284.336 76.9044C281.775 76.9044 279.699 78.9805 279.699 81.5411Z" fill="#8F5952"/>
<path d="M283.55 79.4425C284.582 79.5469 285.519 80.2984 285.845 81.2832C286.171 82.2673 285.868 83.4299 285.103 84.1296" fill="#09222F"/>
<mask id="mask1_8368_3411" style="mask-type:luminance" maskUnits="userSpaceOnUse" x="258" y="62" width="27" height="49">
<path d="M284.046 87.7249C284.036 86.108 284.054 84.4855 284.11 82.8528C284.29 77.62 284.253 72.2635 281.616 67.5857C278.952 62.8584 274.181 61.6468 268.864 62.4739C264.301 63.1845 262.482 64.7667 261.018 68.7959C259.165 73.9012 258.23 78.5695 258.248 84.042C258.256 86.6969 258.386 89.4403 259.545 91.8289C260.704 94.2174 263.144 96.1718 265.791 95.9739C265.671 100.529 264.997 107.797 269.915 109.72C274.336 111.448 283.874 111.211 284.72 104.96C284.824 104.196 284.772 103.422 284.72 102.653C284.38 97.6224 284.077 92.6992 284.046 87.7249Z" fill="white"/>
</mask>
<g mask="url(#mask1_8368_3411)">
<path d="M262.453 99.9728C263.84 100.48 265.381 99.9397 266.695 99.2666C268.735 98.2206 270.667 96.7622 271.694 94.712C269.85 95.619 267.798 96.0977 265.743 96.1013C264.972 96.1028 264.203 96.038 263.434 95.9732C262.368 95.8839 261.303 95.7939 260.237 95.7047" fill="#09222F"/>
</g>
<path d="M319.757 146.138C320.727 152.2 321.167 158.273 321.426 164.4C321.524 166.722 321.503 169.241 321.99 171.521C322.598 174.361 324.426 176.349 325.22 178.973C326.303 182.545 325.811 187.322 325.518 190.989C311.913 192.963 298.091 194.939 284.471 193.063C280.59 192.528 276.952 192.05 273.059 192.615C271.879 186.741 270.147 182.39 270.364 176.137C270.627 168.549 271.53 160.977 272.999 153.529C274.111 147.894 275.859 142.356 276.239 136.625C276.393 134.3 276.322 131.937 276.895 129.679C277.526 127.196 278.897 124.978 280.034 122.681C281.925 118.859 283.089 114.73 283.705 110.519C284.016 108.39 284.193 106.242 284.286 104.092C284.368 102.189 284.09 100.115 284.342 98.2281C284.355 98.1338 284.368 98.0402 284.383 97.9467C287.889 99.3554 291.62 100.199 295.391 100.435C297.379 100.559 299.601 101.892 301.436 102.706C303.608 103.671 305.618 104.986 307.422 106.529C311.014 109.601 313.883 113.62 315.501 118.068C317.12 122.524 317.675 127.402 317.744 132.11C317.815 136.869 318.994 141.37 319.757 146.138Z" fill="#5579CF"/>
<path d="M333.091 165.665C333.664 164.02 333.839 162.264 333.037 161.021C331.181 158.143 326.242 158.103 323.388 158.93C320.128 159.875 317.333 161.952 314.618 163.989C311.785 166.113 309.06 169.229 305.673 170.442C304.907 170.717 304.104 170.87 303.305 171.023C302.051 171.263 300.796 171.503 299.541 171.742C299.299 171.789 299.032 171.85 298.892 172.053C298.798 172.187 298.881 172.639 298.766 172.522C297.903 171.635 298.467 178.566 301.65 181.854C302.811 183.052 305.972 187.178 306.196 187.187C306.374 187.193 306.537 187.093 306.684 186.992C309.972 184.731 312.471 181.47 315.843 179.178C319.463 176.717 323.528 174.944 327.189 172.475C328.609 171.517 330.051 170.54 331.138 169.216C331.842 168.359 332.608 167.051 333.091 165.665Z" fill="#8F5952"/>
<path d="M285.827 66.5531C284.85 62.465 278.401 61.9524 275.049 62.0575C273.413 56.7168 269.057 49.9191 262.877 49.531C261.209 49.4259 259.135 50.2884 259.132 51.9599C259.129 53.4536 260.819 54.5111 260.904 56.002C258.837 54.1533 256.231 52.9152 253.491 52.4825C251.565 52.178 249.172 52.52 248.372 54.298C247.753 55.6744 248.418 57.3201 249.427 58.4423C249.552 58.582 249.694 58.7044 249.828 58.8354C248.14 58.6965 246.366 58.7785 244.815 59.394C242.998 60.1146 241.46 61.7775 241.636 63.8565C241.83 66.1572 244.072 67.196 245.998 67.882C246.507 68.0627 247.024 68.2074 247.545 68.324C247.222 68.6724 246.92 69.0417 246.649 69.4427C245.549 71.0739 245.284 73.1918 246.876 74.6171C248.154 75.7617 251.016 76.4118 252.569 75.6408C253.897 74.9821 254.414 73.6986 255.403 72.6576C255.758 74.751 256.581 76.7659 258.655 77.6881C261.567 78.9832 264.56 76.9574 265.742 74.2853C266.092 73.492 266.35 72.6648 266.525 71.8197C266.958 72.1379 267.404 72.4374 267.878 72.6828C269.183 73.3588 270.828 73.921 272.199 73.078C273.406 72.3359 273.902 70.8832 273.779 69.5226C276.083 71.4519 279.473 72.9211 282.32 72.0234C284.594 71.3057 286.38 68.8704 285.827 66.5531Z" fill="#09222F"/>
<path d="M361.221 149.562C362.52 144.743 362.47 138.981 358.92 135.472C356.292 132.873 352.251 132.033 349.783 129.281C347.104 126.293 346.881 121.733 344.37 118.602C340.129 113.316 331.785 114.41 325.759 111.31C323.587 110.193 321.745 108.535 319.692 107.212C318.505 106.446 317.233 105.764 315.901 105.155C308.69 101.861 299.664 100.723 292.168 100.31C290.394 100.212 288.472 100.155 287.014 101.17C285.713 102.076 285.069 103.647 284.585 105.157C284.159 106.483 283.801 107.884 284.031 109.257C284.262 110.631 285.226 111.97 286.596 112.226C292.936 113.415 292.462 118.128 296.836 121.764C301.191 125.386 307.04 125.193 311.141 129.921C313.809 132.996 312.992 136.576 313.571 140.692C313.962 143.47 318.872 146.031 321.236 147.473C322.527 148.261 325.364 149.284 326.206 148.161C325.757 150.351 321.208 149.846 316.349 156.96C314.422 159.781 315.352 164.063 317.831 166.205C319.791 167.898 322.683 168.641 323.878 170.939C324.306 171.763 324.461 172.709 324.901 173.527C325.968 175.509 328.427 176.28 330.671 176.449C334.977 176.776 338.341 175.372 342.039 173.457C347.268 170.749 350.004 166.229 353.904 162.132C357.483 158.373 359.828 154.73 361.221 149.562Z" fill="#5579CF"/>
<path d="M259.617 85.0614C260.432 87.573 261.471 88.9041 263.452 89.1488C266.082 89.4735 267.512 87.735 268.304 85.782" fill="white"/>
<path d="M299.727 126.14C300.036 131.984 302.125 138.301 307.201 141.212C310.4 143.047 314.366 143.372 317.488 144.927C319.863 146.11 322.745 149.603 325.975 148.483C325.158 149.778 323.47 150.471 322.161 151.266C320.62 152.2 319.412 153.581 318.23 154.941C316.056 157.441 313.864 159.507 315.398 163.092C316.225 165.022 317.856 166.506 319.632 167.627C320.63 168.257 321.692 168.795 322.609 169.537C323.749 170.46 324.639 171.689 325.161 173.06" stroke="#09222F" stroke-miterlimit="10"/>
<path d="M266.256 206.752C265.978 215.122 269.16 225.89 271.288 233.885" stroke="#09222F" stroke-miterlimit="10"/>
<path d="M298.493 170.098C297.88 174.226 299.052 178.588 301.65 181.853C303.436 184.096 305.893 185.905 306.936 188.575" stroke="#09222F" stroke-miterlimit="10"/>
<path d="M230.42 177.413C235.164 174.83 237.814 169.441 238.584 164.094C238.691 163.353 238.896 162.449 239.618 162.252" stroke="#09222F" stroke-miterlimit="10"/>
<path d="M268.692 77.9134C269.322 76.825 270.559 76.1159 271.816 76.1224C273.074 76.1288 274.304 76.8502 274.923 77.9451" stroke="#09222F" stroke-miterlimit="10"/>
<path d="M256.898 77.9134C257.528 76.825 258.765 76.1159 260.023 76.1224C261.28 76.1288 262.51 76.8502 263.129 77.9451" stroke="#09222F" stroke-miterlimit="10"/>
<path d="M239.22 129.358C240.369 127.364 239.739 124.78 240.585 122.641C240.929 121.77 241.504 121.011 241.943 120.184C242.692 118.774 243.038 117.178 243.132 115.585" stroke="#09222F" stroke-miterlimit="10"/>
<path d="M256.842 131.539C256.842 132.457 256.098 133.201 255.18 133.201C254.262 133.201 253.518 132.457 253.518 131.539C253.518 130.621 254.262 129.877 255.18 129.877C256.098 129.877 256.842 130.621 256.842 131.539Z" fill="#09222F"/>
<path d="M254.079 142.096C254.079 143.014 253.334 143.759 252.417 143.759C251.499 143.759 250.754 143.014 250.754 142.096C250.754 141.179 251.499 140.434 252.417 140.434C253.334 140.434 254.079 141.178 254.079 142.096Z" fill="#09222F"/>
<path d="M251.293 154.99C252.211 154.99 252.955 154.246 252.955 153.328C252.955 152.41 252.211 151.666 251.293 151.666C250.375 151.666 249.631 152.41 249.631 153.328C249.631 154.246 250.375 154.99 251.293 154.99Z" fill="#09222F"/>
<path d="M251.833 165.009C251.833 165.926 251.088 166.671 250.17 166.671C249.253 166.671 248.508 165.926 248.508 165.009C248.508 164.091 249.253 163.346 250.17 163.346C251.088 163.346 251.833 164.09 251.833 165.009Z" fill="#09222F"/>
<path d="M102.313 139.279C104.477 139.061 106.581 138.229 108.265 136.852C110.102 135.349 111.557 133.105 112.029 130.762C112.639 127.737 111.472 127.148 109.443 125.144C104.952 120.708 100.689 115.818 97.2447 110.52C89.4053 98.4587 89.3002 83.7748 89.6328 69.8079C89.7019 66.9197 90.1475 64.1173 90.3333 61.2867C90.3635 60.8239 90.3527 60.3286 90.6046 59.9384C90.8091 59.6224 91.1532 59.4309 91.4728 59.233C93.7678 57.8119 94.4869 55.9122 95.7021 53.6892C96.8877 51.5217 98.2108 49.8703 98.6485 47.3155C98.9372 45.6303 96.3003 45.3207 96.0123 47.0009C95.8511 47.9418 94.2997 53.7519 92.6275 51.9414C91.6967 50.9336 93.5093 47.9835 93.9312 47.0139C94.9073 44.7715 95.7438 42.4722 96.4493 40.1304C96.6559 39.4444 96.4298 38.6878 95.7222 38.3992C95.1067 38.1486 94.199 38.4366 93.9909 39.1262C93.4669 40.8647 92.8672 42.578 92.1956 44.2647C92.0861 44.1092 91.9666 43.9609 91.8219 43.8313C91.6794 43.7032 91.5218 43.5981 91.3627 43.4951C92.1754 41.0965 93.0932 38.7346 94.1032 36.4109C94.168 36.3223 94.2242 36.2266 94.2587 36.1172C94.2889 36.0207 94.3199 35.9242 94.3501 35.8278C94.5668 35.1446 94.3242 34.3823 93.6231 34.0965C92.9406 33.8186 92.1826 34.1663 91.8918 34.8236C90.7659 37.3669 89.7574 39.9584 88.869 42.5924C88.4242 42.4974 87.9642 42.411 87.4876 42.3469C87.6431 41.8984 87.795 41.4485 87.9562 41.0015C88.5242 39.4235 89.1275 37.8585 89.7624 36.3058C90.4096 34.7213 87.9498 33.7193 87.3033 35.3015C86.5698 37.0976 85.8772 38.9103 85.2322 40.7409C85.0544 41.2455 84.8881 41.7538 84.7175 42.2605C84.2734 42.3016 83.8364 42.3692 83.4182 42.4787C83.9055 40.9626 84.4749 39.4696 85.1495 38.0119C85.8679 36.4569 83.4059 35.4606 82.6904 37.0076C81.3637 39.8778 80.3818 42.8983 79.7439 45.9902C78.8398 48.5227 78.8801 51.6182 78.4525 54.1895C77.8658 57.7176 77.1668 61.2256 76.4721 64.7335C74.7552 73.4051 73.0333 82.1882 73.0175 91.0613C73.0038 98.6653 72.6863 106.634 75.4643 113.861C78.2034 120.988 84.5476 127.498 89.7674 132.951C92.1027 135.391 94.6647 137.807 97.8825 138.831C99.3079 139.288 100.825 139.43 102.313 139.279Z" fill="#8F5952"/>
<path d="M131.154 144.089C131.61 140.963 131.946 137.777 131.818 134.613C131.691 131.451 132.438 128.587 132.33 125.464C132.321 125.192 116.45 119.541 114.891 118.766C112.171 117.412 109.877 116.03 107.607 114.078C105.972 112.672 103.447 109.911 100.899 110.596C100.312 110.754 99.9221 111.294 99.5816 111.797C94.9989 118.566 91.3182 125.206 85.3735 131.109C92.722 139.091 100.562 146.618 108.836 153.636C112.657 156.878 121.101 164.702 126.004 160.309C130.36 156.405 130.376 149.435 131.154 144.089Z" fill="#FFCA00"/>
<path d="M141.379 117.657C144.665 114.458 146.497 110.444 149.373 107.203C151.547 104.752 155.03 104.11 156.82 101.106C158.545 98.211 157.386 93.4894 154.049 93.0251C156.384 92.984 158.363 90.9374 158.835 88.6511C159.307 86.3641 158.514 83.9662 157.221 82.0218C155.567 79.5332 152.997 77.5766 150.056 77.041C147.123 76.5076 144.01 77.5226 142.124 79.8586C140.073 77.1152 136.944 74.8584 133.242 75.679C130.23 76.3464 127.772 79.0221 127.361 82.0794C124.706 78.5952 119.367 77.5118 115.563 79.6858C111.759 81.8599 109.983 87.0091 111.637 91.0663C109.277 90.1247 106.744 89.3451 104.227 89.6913C101.709 90.0376 99.2308 91.7926 98.7831 94.2942C98.3778 96.5589 101.078 99.3822 100.254 101.23C99.603 102.689 94.561 103.045 93.1789 105.392C91.3525 108.491 92.161 112.88 94.9721 115.125C91.3511 115.359 89.239 119.495 89.108 123.121C89.0475 124.799 89.2743 126.556 90.2043 127.955C92.2675 131.059 99.1149 132.498 102.458 133.034C112.958 134.716 124.85 132.144 131.432 123.792C131.503 123.703 135.289 123.345 135.918 123.031C137.645 122.171 138.557 120.499 139.855 119.172C140.354 118.66 140.865 118.157 141.379 117.657Z" fill="#09222F"/>
<path d="M168.146 193.01C168.521 188.592 169.515 184.271 170.307 179.916C169.548 179.054 168.651 178.474 167.614 178.255C153.115 175.196 138.976 168.328 125.441 174.357C121.788 175.984 116.985 161.584 114.173 164.456C110.977 167.72 111.994 166.791 111.477 170.858C110.677 177.163 112.487 201.307 112.488 201.351C112.569 203.918 110.714 203.413 111.785 205.747C114.058 210.703 119.749 213.119 125.122 214.048C133.637 215.521 142.381 214.378 150.874 212.778C156.86 211.65 162.744 216.753 167.185 212.582C168.11 211.715 168.935 210.613 169.664 209.342C168.533 203.999 167.684 198.465 168.146 193.01Z" fill="#8F5952"/>
<path d="M172.714 234.273C172.632 233.136 172.609 232.038 172.528 231.232C172.048 226.473 171.772 221.695 171.414 216.926C171.112 212.916 171.294 208.206 170.155 204.324C169.767 202.999 169.084 201.665 168.21 200.365C165.713 196.649 161.652 193.209 158.403 191.043C148.677 184.558 135.422 184.865 124.923 190.003C114.423 195.142 106.465 204.508 100.966 214.824C97.7486 220.861 94.9187 227.511 92.6663 234.273H172.714Z" fill="#09222F"/>
<path d="M108.948 180.808C108.496 186.258 108.11 191.713 107.795 197.172C127.339 202.587 154.051 210.543 173.843 202.076C170.98 190.912 172.268 178.526 171.82 167.018C171.299 153.625 169.285 134.303 156.752 126.562C146.179 120.032 131.781 121.292 122.335 129.285C113.615 136.664 112.714 145.872 111.417 156.602C110.444 164.654 109.621 172.725 108.948 180.808Z" fill="#FFCA00"/>
<path d="M133.661 109.836C133.67 108.269 133.652 106.697 133.598 105.114C133.425 100.042 133.46 94.8506 136.016 90.3168C138.598 85.7348 143.222 84.5607 148.375 85.3627C152.797 86.0509 154.56 87.5849 155.979 91.4902C157.775 96.4386 158.68 100.963 158.664 106.267C158.656 108.84 158.53 111.499 157.407 113.814C156.284 116.129 153.918 118.023 151.353 117.832C151.469 122.247 152.121 129.291 147.355 131.154C143.07 132.83 133.826 132.599 133.006 126.541C132.906 125.801 132.956 125.051 133.007 124.306C133.336 119.429 133.632 114.658 133.661 109.836Z" fill="#8F5952"/>
<path d="M142.55 92.7163C143.861 93.3714 145.579 93.0287 146.73 93.935C148.992 95.7146 148.207 103.75 153.211 102.12C155.237 101.459 155.601 98.7956 155.604 96.6648C157.423 98.3464 159.602 99.6386 161.951 100.428C163.729 101.025 165.686 101.332 167.474 100.764C169.261 100.196 170.804 98.5746 170.816 96.6993C170.831 94.1424 168.221 92.3708 165.76 91.6782C163.108 90.9325 160.268 90.8648 157.584 91.4853C159.673 91.0282 161.62 89.9441 163.11 88.41C163.632 87.8716 164.125 87.2078 164.102 86.4577C164.085 85.8926 163.774 85.3786 163.427 84.9323C161.797 82.8368 159.218 81.6483 156.606 81.1768C149.898 79.9652 144.577 79.6053 138.419 82.926C137.8 83.2601 137.281 83.7481 136.769 84.2312C135.555 85.3772 134.342 86.5225 133.128 87.6686C132.408 88.3488 131.683 89.0342 131.098 89.8332C129.57 91.918 129.118 94.5858 128.866 97.1579C128.684 99.0152 128.787 101.283 130.408 102.206C131.674 102.928 133.75 102.947 134.685 101.828C135.619 100.71 135.536 98.6099 135.497 97.1529C135.478 96.4596 135.405 95.7218 135.737 95.112C136.131 94.3871 136.982 94.0517 137.555 93.4578C139.278 91.6718 137.976 88.8168 139.151 86.8184C139.882 88.9931 140.198 91.54 142.55 92.7163Z" fill="#09222F"/>
<path d="M138.16 104.509C139.509 106.592 138.915 109.375 136.832 110.724C134.749 112.073 131.966 111.479 130.617 109.395C129.268 107.312 129.863 104.53 131.945 103.181C134.028 101.831 136.81 102.426 138.16 104.509Z" fill="#8F5952"/>
<path d="M133.921 104.831C133.137 105.459 132.771 106.565 133.024 107.537C133.278 108.509 134.137 109.295 135.128 109.461" fill="#09222F"/>
<path d="M148.224 109.354C148.744 111.261 150.943 112.53 152.855 112.024C154.766 111.518 156.05 109.328 155.559 107.413" fill="white"/>
<mask id="mask2_8368_3411" style="mask-type:luminance" maskUnits="userSpaceOnUse" x="132" y="85" width="27" height="48">
<path d="M133.661 109.836C133.67 108.269 133.652 106.697 133.598 105.114C133.425 100.042 133.46 94.8506 136.016 90.3168C138.598 85.7348 143.222 84.5607 148.375 85.3627C152.797 86.0509 154.56 87.5849 155.979 91.4902C157.775 96.4386 158.68 100.963 158.664 106.267C158.656 108.84 158.53 111.499 157.407 113.814C156.284 116.129 153.918 118.023 151.353 117.832C151.469 122.247 152.121 129.291 147.355 131.154C143.07 132.83 133.826 132.599 133.006 126.541C132.906 125.801 132.956 125.051 133.007 124.306C133.336 119.429 133.632 114.658 133.661 109.836Z" fill="white"/>
</mask>
<g mask="url(#mask2_8368_3411)">
<path d="M154.588 121.707C153.244 122.197 151.75 121.675 150.477 121.022C148.499 120.008 146.627 118.595 145.632 116.608C147.419 117.487 149.408 117.951 151.399 117.954C152.146 117.955 152.892 117.893 153.637 117.83C154.67 117.743 155.703 117.657 156.736 117.569" fill="#09222F"/>
</g>
<path d="M146.526 100.803C145.727 100.14 144.655 99.9021 143.689 100.176C142.723 100.449 141.883 101.227 141.464 102.235" stroke="#09222F" stroke-miterlimit="10"/>
<path d="M138.195 119.071C140.53 116.736 140.53 112.949 138.195 110.613C135.859 108.278 132.072 108.278 129.737 110.613C127.401 112.949 127.401 116.736 129.737 119.071C132.072 121.407 135.859 121.407 138.195 119.071Z" stroke="#FFCA00" stroke-miterlimit="10"/>
<path d="M75.9806 106.698C75.4976 107.343 75.4421 108.278 75.8446 108.977C76.247 109.674 77.0849 110.095 77.8847 110" fill="#09222F"/>
<path d="M82.1396 46.2721C82.0201 46.8199 81.843 47.3555 81.6119 47.8666" stroke="#09222F" stroke-miterlimit="10"/>
<path d="M85.0702 46.942C84.9298 47.2789 84.7894 47.6158 84.649 47.9527" stroke="#09222F" stroke-miterlimit="10"/>
<path d="M88.1163 47.3679C87.919 47.9013 87.7218 48.434 87.5238 48.9675" stroke="#09222F" stroke-miterlimit="10"/>
<path d="M90.8652 48.532C90.5874 48.9553 90.3095 49.3778 90.0316 49.8011" stroke="#09222F" stroke-miterlimit="10"/>
<path d="M139.309 83.7603C138.945 86.364 138.921 89.0146 139.235 91.6248C139.371 92.7529 139.507 94.0738 138.682 94.8549C138.363 95.158 137.937 95.3293 137.613 95.6266C136.388 96.746 137.18 98.7933 136.748 100.395C136.488 101.362 135.723 102.177 134.775 102.5C133.827 102.822 132.723 102.642 131.927 102.036" stroke="#09222F" stroke-miterlimit="10"/>
<path d="M143.245 162.774C141.245 165.165 140.709 168.69 141.91 171.566C143.11 174.443 145.992 176.543 149.099 176.803" fill="#09222F"/>
<path d="M166.268 147.265C164.113 147.503 161.964 148.326 160.456 149.883C158.947 151.44 158.183 153.795 158.835 155.863" fill="#09222F"/>
<path d="M159.041 167.379C157.79 169.519 157.974 172.353 159.304 174.445C160.634 176.536 162.995 177.877 165.454 178.187" fill="#09222F"/>
<path d="M126.176 136.861C124.925 139.001 125.108 141.835 126.438 143.926C127.769 146.018 130.129 147.359 132.589 147.669" fill="#09222F"/>
<path d="M141.42 187.499C142.73 185.567 145.096 184.514 147.429 184.43C149.762 184.346 152.057 185.134 154.094 186.274C154.847 186.695 155.653 187.291 155.716 188.152" fill="#09222F"/>
<path d="M129.095 195.422C130.405 193.49 132.771 192.437 135.104 192.353C137.437 192.269 139.732 193.057 141.77 194.197C142.523 194.618 143.328 195.214 143.391 196.075" fill="#09222F"/>
<path d="M140.246 148.471C141.556 146.539 143.923 145.486 146.256 145.402C148.589 145.318 150.884 146.106 152.921 147.246C153.675 147.667 154.48 148.263 154.543 149.124" fill="#09222F"/>
<path d="M117.553 178.581C117.322 180.398 118.327 182.12 119.313 183.663C120.364 185.307 121.574 187.046 123.426 187.659C125.376 188.305 127.487 187.525 129.355 186.672" fill="#09222F"/>
<path d="M157.735 199.63C159.549 199.883 161.282 198.899 162.838 197.932C164.495 196.901 166.248 195.712 166.884 193.867C167.554 191.926 166.799 189.806 165.969 187.927" fill="#09222F"/>
<path d="M120.716 165.778C123.228 164.684 126.412 164.573 128.48 166.369C130.262 167.917 130.783 170.428 131.2 172.752C131.404 173.883 131.607 175.014 131.81 176.145" fill="#09222F"/>
<path d="M125.766 154.769C127.345 157.174 130.009 159.175 132.868 158.862C135.292 158.598 137.221 156.788 138.956 155.074" fill="#09222F"/>
<path d="M109.46 195.013C109.421 195.044 109.385 195.079 109.35 195.114C108.945 195.53 108.755 196.126 108.763 196.707C108.769 197.154 108.99 197.594 109.004 198.002C108.177 198.017 107.443 197.866 106.88 198.675C106.381 199.389 106.4 200.361 106.693 201.182C106.14 200.627 105.101 201.073 104.806 201.799C104.512 202.525 104.72 203.347 104.93 204.101C104.323 203.898 103.611 203.735 103.081 204.094C102.686 204.362 102.505 204.866 102.51 205.343C102.515 205.82 102.678 206.28 102.847 206.726C103.368 208.102 103.964 209.45 104.631 210.761C105.215 211.907 105.883 213.075 106.893 213.901C107.381 214.299 107.837 214.682 108.339 214.235C108.818 213.808 108.918 213.15 108.751 212.562C108.59 211.998 108.383 211.447 108.132 210.917C107.987 210.61 107.554 210.09 107.741 209.72C108.103 209.003 108.878 210.265 109.148 210.599C109.578 211.13 110.167 211.576 110.846 211.645C111.525 211.714 112.276 211.305 112.423 210.637C112.605 209.813 111.886 209.104 111.443 208.385C111.071 207.78 110.878 207.086 110.689 206.402C111.372 206.695 111.682 207.489 112.255 207.964C112.639 208.282 113.158 208.448 113.649 208.362C114.14 208.275 114.587 207.921 114.738 207.446C114.869 207.031 114.776 206.579 114.638 206.166C114.346 205.29 113.857 204.58 113.271 203.879C112.878 203.406 112.294 202.555 112.184 201.943C112.595 201.865 113.01 202.335 113.262 202.631C113.518 202.931 113.76 203.255 114.095 203.463C114.43 203.671 114.892 203.735 115.207 203.497C115.899 202.975 115.58 201.766 115.228 201.17C114.561 200.037 113.736 199.242 112.824 198.356C111.963 197.518 111.624 196.233 110.845 195.319C110.597 195.029 110.255 194.751 109.877 194.807C109.723 194.83 109.582 194.91 109.46 195.013Z" fill="#8F5952"/>
<path d="M108.179 210.253C107.811 209.8 107.475 209.32 107.175 208.819C107.023 208.564 106.88 208.304 106.737 208.044C106.252 207.163 105.768 206.281 105.283 205.4" stroke="#09222F" stroke-miterlimit="10"/>
<path d="M114.34 204.496C113.242 203.249 110.883 199.664 109.587 198.626C109.482 198.542 109.357 198.459 109.226 198.484" stroke="#09222F" stroke-miterlimit="10"/>
<path d="M112.15 208.484C111.032 206.95 108.393 203.451 107.2 201.974C107.099 201.848 106.959 201.709 106.802 201.749" stroke="#09222F" stroke-miterlimit="10"/>
<path d="M216.301 100.68C218.862 100.68 220.937 98.6043 220.937 96.0436C220.937 93.4828 218.862 91.4069 216.301 91.4069C213.74 91.4069 211.664 93.4828 211.664 96.0436C211.664 98.6043 213.74 100.68 216.301 100.68Z" fill="#A46259"/>
<path d="M215.515 93.944C216.546 94.0484 217.483 94.8 217.81 95.7847C218.136 96.7688 217.833 97.9314 217.067 98.6311" fill="#09222F"/>
<defs>
<clipPath id="clip0_8368_3411">
<rect width="418" height="230" fill="white" transform="translate(0 4)"/>
</clipPath>
</defs>
</svg>
