<svg width="38" height="40" viewBox="0 0 38 40" fill="none" xmlns="http://www.w3.org/2000/svg">
<mask id="mask0_6648_351" style="mask-type:luminance" maskUnits="userSpaceOnUse" x="0" y="0" width="38" height="40">
<path d="M0 0H37.0492V40H0V0Z" fill="white"/>
</mask>
<g mask="url(#mask0_6648_351)">
<path d="M20.9255 11.3955L23.6201 19.3414L36.1228 32.7938C34.2182 34.8733 32.2906 36.9284 30.3788 39.0001L17.7768 25.4412H16.2197V11.3791L14.4508 9.48293C13.7085 8.6872 13.7074 7.3944 14.4482 6.59726C15.1882 5.80107 16.3878 5.80107 17.1277 6.59726L19.7607 9.43011C20.2774 9.98612 20.675 10.6569 20.9255 11.3955Z" fill="#CA6F59"/>
<path d="M36.1228 33.2222L23.6183 19.5549L20.9227 11.4813C20.6723 10.7305 20.2754 10.0491 19.7581 9.48471L17.1251 6.60595C16.7545 6.20172 16.2702 6.00012 15.7851 6.00012C15.3 6.00012 14.8149 6.20172 14.4451 6.60595C14.1 6.98311 13.9164 7.4692 13.8933 7.96253C13.9262 7.95974 13.9592 7.95887 13.9922 7.95887C14.4773 7.95887 14.9623 8.16054 15.3321 8.56557L17.966 11.4435C18.4824 12.0088 18.8801 12.6902 19.1305 13.44L21.8261 21.5136L23.6868 23.5473C22.3669 24.9935 21.0464 26.4389 19.7243 27.8833L27.1506 36.0001C27.9067 35.3511 28.3926 34.3438 28.3926 33.215V31.0824C28.3926 30.1998 29.3689 29.7578 29.9399 30.3819L34.3307 35.181L36.1228 33.2222Z" fill="#BC5D4C"/>
<path d="M36.0655 33.8179C36.2905 34.0609 36.6554 34.0609 36.8804 33.8179C37.1054 33.575 37.1054 33.181 36.8804 32.9381L34.3279 30.1823C34.1029 29.9394 33.738 29.9394 33.513 30.1823C33.288 30.4253 33.288 30.8192 33.513 31.0622L36.0655 33.8179Z" fill="black"/>
<path d="M30.0779 39.8287C30.2853 40.0571 30.6216 40.0571 30.8291 39.8287C31.0365 39.6004 31.0365 39.2301 30.8291 39.0018L18.576 25.5125C18.4764 25.4029 18.3413 25.3413 18.2004 25.3413H17.2176V11.936C17.2176 11.7805 17.1613 11.6315 17.0613 11.5218L15.3413 9.63539C14.8277 9.07199 14.8269 8.15669 15.3396 7.59222C15.8516 7.02856 16.6817 7.02852 17.1938 7.59222L19.7539 10.4106C20.2015 10.9033 20.5459 11.4981 20.7629 12.1528L23.383 20.0579L23.3937 20.0876C23.4202 20.156 23.4585 20.2183 23.5064 20.271L31.5112 29.0835C31.7186 29.3118 32.0549 29.3118 32.2623 29.0835C32.4698 28.8552 32.4698 28.485 32.2623 28.2566L24.3406 19.5356L21.7608 11.752C21.4908 10.9372 21.0621 10.197 20.505 9.58365L17.945 6.76527H17.9449C17.018 5.74493 15.5154 5.74488 14.5885 6.76527C13.6604 7.78703 13.6617 9.44401 14.5916 10.4639L16.1553 12.1789V25.926C16.1553 26.2489 16.3931 26.5107 16.6864 26.5107H17.9805L30.0779 39.8287Z" fill="black"/>
<path d="M31.8773 22.9851L28.7907 19.5222C28.2872 18.9573 27.6796 18.5226 27.0106 18.2488L19.8141 15.3029L6.8971 -7.62939e-06L0.926147 6.69874L14.2895 21.6911V29.4859C14.2895 30.4289 14.9432 31.232 15.7832 31.2654C16.665 31.3006 17.3898 30.5091 17.3898 29.5276V31.3967C17.3898 32.3572 18.0838 33.1358 18.9399 33.1358C19.796 33.1358 20.49 32.3572 20.49 31.3967V32.2884C20.49 33.2314 21.1436 34.0345 21.9836 34.068C22.8654 34.1032 23.5902 33.3116 23.5902 32.33V33.261C23.5902 34.2214 24.2842 35 25.1403 35C25.9964 35 26.6904 34.2214 26.6904 33.261V23.0174L29.2654 25.9114C29.9784 26.7136 31.1335 26.724 31.858 25.9348C32.597 25.13 32.6057 23.8022 31.8773 22.9851Z" fill="#FFCEBF"/>
<path d="M32.4179 24.9162C32.4179 25.4667 32.2324 26.0164 31.8622 26.4306C31.5809 26.7448 31.234 26.935 30.8736 27.0001C30.8886 26.8907 30.8962 26.7796 30.8962 26.6685C30.8962 26.1293 30.7175 25.5891 30.3593 25.1767L27.295 21.6473C26.795 21.0715 26.1918 20.6287 25.5275 20.35L18.3819 17.3473L5.55725 1.75232L7.07899 0.000120163L19.9036 15.595L27.0491 18.5977C27.7135 18.8765 28.3168 19.3193 28.8167 19.895L31.881 23.4235C32.2392 23.836 32.4179 24.3761 32.4179 24.9162Z" fill="#FFB09E"/>
<path d="M13.7261 25.4121C13.7261 25.7368 13.9709 26 14.2729 26C14.5749 26 14.8197 25.7368 14.8197 25.4121V21.3475C14.8197 21.1916 14.7621 21.0421 14.6595 20.9318L0.933393 6.1722C0.719869 5.9426 0.373654 5.9426 0.16013 6.1722C-0.0533754 6.4018 -0.0533776 6.77403 0.16013 7.00363L13.7261 21.591V25.4121Z" fill="black"/>
<path d="M26.4818 33.6764C26.4818 34.3036 26.0214 34.8121 25.4534 34.8121C24.8856 34.8121 24.4252 34.3037 24.4252 33.6764V32.7505L24.4245 32.7199C24.4101 32.4061 24.1751 32.1565 23.8874 32.1565C23.5996 32.1565 23.3646 32.4061 23.3502 32.7199L23.3495 32.7505L23.3492 32.7805C23.3345 33.4077 22.8597 33.9081 22.2832 33.8855H22.2831C21.7408 33.8642 21.2929 33.3461 21.2929 32.7091V31.8222L21.2922 31.7917C21.2777 31.4778 21.0428 31.2282 20.7551 31.2282C20.458 31.2282 20.2172 31.4942 20.2172 31.8222C20.2172 32.4495 19.7568 32.9579 19.1889 32.9579C18.621 32.9579 18.1606 32.4495 18.1606 31.8222V29.9631L18.1599 29.9325C18.1455 29.6187 17.9105 29.3691 17.6227 29.3691C17.3257 29.3691 17.0849 29.6351 17.0849 29.9631C17.0849 30.5941 16.6191 31.1048 16.046 31.0987L16.0186 31.098C15.4762 31.0767 15.0283 30.5587 15.0283 29.9216V29.1205C15.0282 28.7924 14.7875 28.5265 14.4904 28.5265C14.1934 28.5265 13.9526 28.7925 13.9526 29.1205V29.9216C13.9526 31.1605 14.8255 32.2399 15.9804 32.2852L16.0363 32.2866C16.4196 32.2907 16.7794 32.1813 17.0902 31.9873C17.1669 33.1936 18.0772 34.1459 19.1889 34.1459C19.6471 34.1459 20.071 33.9841 20.4164 33.7095C20.7379 34.4794 21.4193 35.0403 22.245 35.0727L22.3008 35.0741C22.763 35.079 23.1912 34.9192 23.5404 34.6446C23.8728 35.4445 24.6043 36.0001 25.4534 36.0001C26.6154 36.0001 27.5575 34.9598 27.5575 33.6764V24.9237L29.2406 26.7861C30.1688 27.8138 31.6724 27.827 32.6154 26.8159C33.5623 25.8005 33.5881 24.1358 32.6844 23.0853L32.6406 23.0357L29.522 19.5914V19.5914C28.9578 18.9684 28.2772 18.489 27.5276 18.1869V18.1869L20.3755 15.3049L7.41196 0.185673C7.20773 -0.0525169 6.86733 -0.062748 6.65165 0.162815C6.43599 0.388382 6.42672 0.764332 6.63096 1.00253L19.6817 16.2233L19.6925 16.2356C19.7478 16.2964 19.8144 16.3433 19.8878 16.3729L27.1589 19.3029C27.7612 19.5457 28.3081 19.9309 28.7614 20.4315L31.88 23.8757L31.9041 23.9031C32.3954 24.4742 32.3893 25.3737 31.8906 25.9366L31.8661 25.9636C31.3452 26.5221 30.5147 26.5147 30.0021 25.947L30.002 25.9468L27.4003 23.0682C27.2466 22.8981 27.0152 22.847 26.8141 22.9389C26.613 23.0308 26.4818 23.2474 26.4818 23.4878V33.6764Z" fill="black"/>
<path d="M10.1884 23C10.1884 24.1046 10.9609 25 11.9138 25H14.0203C14.9732 25 15.7457 24.1046 15.7457 23C15.7457 21.8954 14.9732 21 14.0203 21H11.9138C10.9609 21 10.1884 21.8954 10.1884 23Z" fill="#F89580"/>
<path d="M15.7458 22.9995C15.7458 24.1043 14.9744 25 14.0227 25H12.0409C12.9925 25 13.7641 24.1043 13.7641 22.9995C13.7641 22.4476 13.5714 21.9475 13.2592 21.5861C12.948 21.2237 12.5163 21 12.0409 21H14.0227C14.4981 21 14.9297 21.2237 15.241 21.5861C15.5532 21.9475 15.7458 22.4476 15.7458 22.9995Z" fill="#EC806C"/>
<path d="M14.769 23C14.769 23.5399 14.3509 23.9775 13.8352 23.9775H12.0989C11.5832 23.9775 11.1651 23.5399 11.1651 23C11.1651 22.4601 11.5832 22.0225 12.0989 22.0225H13.8352C14.3509 22.0225 14.769 22.4601 14.769 23ZM15.7457 23C15.7457 21.8954 14.8903 21 13.8352 21H12.0989C11.0437 21 10.1884 21.8954 10.1884 23C10.1884 24.1046 11.0437 25 12.0989 25H13.8352C14.8903 25 15.7457 24.1046 15.7457 23Z" fill="black"/>
<path d="M8.33582 19.5C8.33582 20.3284 9.05449 21 9.94104 21H13.2143C14.1008 21 14.8194 20.3284 14.8194 19.5C14.8194 18.6716 14.1008 18 13.2143 18H9.94104C9.05449 18 8.33582 18.6716 8.33582 19.5Z" fill="#FFB09E"/>
<path d="M14.8195 19.5C14.8195 20.3284 14.0488 21 13.0968 21H11.1146C12.0665 21 12.8382 20.3284 12.8382 19.5C12.8382 19.0862 12.6455 18.7104 12.3333 18.4394C12.021 18.1677 11.591 18 11.1146 18H13.0968C13.5733 18 14.0032 18.1677 14.3155 18.4394C14.6269 18.7104 14.8195 19.0862 14.8195 19.5Z" fill="#FBA08D"/>
<path d="M13.7426 19.5001C13.7426 20.175 13.2818 20.722 12.7132 20.722H9.51605C8.94746 20.722 8.48654 20.175 8.48654 19.5001C8.48655 18.8253 8.94747 18.2782 9.51605 18.2782H12.7132C13.2818 18.2782 13.7426 18.8253 13.7426 19.5001ZM14.8195 19.5001C14.8195 18.1195 13.8766 17.0001 12.7132 17.0001H9.51605C8.35272 17.0001 7.40967 18.1194 7.40967 19.5001C7.40967 20.8808 8.35272 22.0001 9.51605 22.0001H12.7132C13.8766 22.0001 14.8195 20.8808 14.8195 19.5001Z" fill="black"/>
<path d="M6.48364 16C6.48364 17.1046 7.19815 18 8.07955 18H11.3713C12.2527 18 12.9672 17.1046 12.9672 16C12.9672 14.8954 12.2527 14 11.3713 14H8.07955C7.19815 14 6.48364 14.8954 6.48364 16Z" fill="#F89580"/>
<path d="M12.9671 15.9995C12.9671 17.1043 12.1956 18 11.244 18H9.26221C10.2138 18 10.9853 17.1043 10.9853 15.9995C10.9853 15.4476 10.7927 14.9475 10.4805 14.5861C10.1683 14.2237 9.73846 14 9.26221 14H11.244C11.7202 14 12.1502 14.2237 12.4623 14.5861C12.7745 14.9475 12.9671 15.4476 12.9671 15.9995Z" fill="#EC806C"/>
<path d="M11.8956 16C11.8956 16.5399 11.4369 16.9775 10.8712 16.9775H7.65317C7.08741 16.9775 6.62878 16.5399 6.62878 16C6.62879 15.4601 7.08742 15.0225 7.65317 15.0225H10.8712C11.4369 15.0225 11.8956 15.4602 11.8956 16ZM12.9671 16C12.9671 14.8954 12.0286 14 10.8712 14H7.65317C6.49563 14 5.55725 14.8954 5.55725 16C5.55725 17.1046 6.49562 18 7.65317 18H10.8712C12.0286 18 12.9671 17.1046 12.9671 16Z" fill="black"/>
<path d="M3.70471 12.4999C3.70471 13.3283 4.51746 13.9999 5.52005 13.9999H8.37298C9.37557 13.9999 10.1883 13.3283 10.1883 12.4999C10.1883 11.6714 9.37557 10.9999 8.37298 10.9999H5.52005C4.51746 10.9999 3.70471 11.6714 3.70471 12.4999Z" fill="#FFB09E"/>
<path d="M10.1886 12.4998C10.1886 13.3283 9.41711 13.9999 8.4654 13.9999H6.48364C7.43527 13.9999 8.20672 13.3283 8.20672 12.4998C8.20672 12.0853 8.01416 11.7111 7.70192 11.4393C7.3907 11.1676 6.95902 10.9999 6.48364 10.9999H8.4654C8.94078 10.9999 9.37246 11.1676 9.68375 11.4393C9.99592 11.7111 10.1886 12.0853 10.1886 12.4998Z" fill="#FBA08D"/>
<path d="M9.14261 13C9.14261 13.5398 8.69504 13.9775 8.1429 13.9775H5.75013C5.19802 13.9775 4.75042 13.5398 4.75042 13C4.75043 12.4903 5.14996 12.0713 5.65944 12.0268C5.94706 12.0017 6.15938 11.7533 6.13369 11.4721C6.10799 11.1909 5.85403 10.9833 5.56641 11.0084C4.52281 11.0995 3.70472 11.9558 3.70471 13C3.70471 14.1045 4.62046 15 5.75013 15H8.1429C9.27254 15 10.1883 14.1046 10.1883 13C10.1883 11.8956 9.2726 11 8.1429 11H8.11753C7.82877 11 7.59468 11.2289 7.59467 11.5112C7.59467 11.7936 7.82877 12.0225 8.11753 12.0225H8.1429C8.69497 12.0225 9.1426 12.4602 9.14261 13Z" fill="black"/>
<path d="M16.6719 27.5737V29.4263C16.6719 29.7432 16.8792 30 17.135 30C17.3908 30 17.5981 29.7432 17.5981 29.4263V27.5737C17.5981 27.2568 17.3908 27 17.135 27C16.8792 27 16.6719 27.2568 16.6719 27.5737Z" fill="black"/>
<path d="M20.377 28.5786V31.4214C20.377 31.7409 20.5843 32 20.8401 32C21.0958 32 21.3032 31.7409 21.3032 31.4214V28.5786C21.3032 28.2591 21.0958 28 20.8401 28C20.5843 28 20.377 28.2591 20.377 28.5786Z" fill="black"/>
<path d="M23.1556 29.6176V32.3824C23.1556 32.7235 23.363 33 23.6188 33C23.8745 33 24.0819 32.7235 24.0819 32.3824V29.6176C24.0819 29.2765 23.8745 29 23.6188 29C23.363 29 23.1556 29.2765 23.1556 29.6176Z" fill="black"/>
</g>
</svg>
